solid OpenSCAD_Model
  facet normal 0.999507 0.0314064 0
    outer loop
      vertex 82.2 0 68.5
      vertex 82.0873 3.58501 66.5
      vertex 82.0873 3.58501 68.5
    endloop
  endfacet
  facet normal 0.999507 0.0314064 0
    outer loop
      vertex 82.0873 3.58501 66.5
      vertex 82.2 0 68.5
      vertex 82.2 0 66.5
    endloop
  endfacet
  facet normal -0.999507 0.0314064 0
    outer loop
      vertex -82.2 0 66.5
      vertex -82.0873 3.58501 68.5
      vertex -82.0873 3.58501 66.5
    endloop
  endfacet
  facet normal -0.999507 0.0314064 0
    outer loop
      vertex -82.0873 3.58501 68.5
      vertex -82.2 0 66.5
      vertex -82.2 0 68.5
    endloop
  endfacet
  facet normal 0.0218171 0.999762 -0
    outer loop
      vertex 4.30202 68.4061 66.5
      vertex 0 68.5 68.5
      vertex 4.30202 68.4061 68.5
    endloop
  endfacet
  facet normal 0.0218171 0.999762 0
    outer loop
      vertex 0 68.5 68.5
      vertex 4.30202 68.4061 66.5
      vertex 0 68.5 66.5
    endloop
  endfacet
  facet normal 0.620287 0.784375 -0
    outer loop
      vertex 58.1242 48.4368 66.5
      vertex 55.0025 50.9054 68.5
      vertex 58.1242 48.4368 68.5
    endloop
  endfacet
  facet normal 0.620287 0.784375 0
    outer loop
      vertex 55.0025 50.9054 68.5
      vertex 58.1242 48.4368 66.5
      vertex 55.0025 50.9054 66.5
    endloop
  endfacet
  facet normal -0.620287 0.784375 0
    outer loop
      vertex -55.0025 50.9054 66.5
      vertex -58.1242 48.4368 68.5
      vertex -55.0025 50.9054 68.5
    endloop
  endfacet
  facet normal -0.620287 0.784375 0
    outer loop
      vertex -58.1242 48.4368 68.5
      vertex -55.0025 50.9054 66.5
      vertex -58.1242 48.4368 66.5
    endloop
  endfacet
  facet normal -0.326286 0.945271 0
    outer loop
      vertex -29.4578 63.9503 66.5
      vertex -33.4338 62.5779 68.5
      vertex -29.4578 63.9503 68.5
    endloop
  endfacet
  facet normal -0.326286 0.945271 0
    outer loop
      vertex -33.4338 62.5779 68.5
      vertex -29.4578 63.9503 66.5
      vertex -33.4338 62.5779 66.5
    endloop
  endfacet
  facet normal 0.895479 0.445103 0
    outer loop
      vertex 76.7403 24.5482 68.5
      vertex 75.0934 27.8615 66.5
      vertex 75.0934 27.8615 68.5
    endloop
  endfacet
  facet normal 0.895479 0.445103 0
    outer loop
      vertex 75.0934 27.8615 66.5
      vertex 76.7403 24.5482 68.5
      vertex 76.7403 24.5482 66.5
    endloop
  endfacet
  facet normal 0.326286 0.945271 -0
    outer loop
      vertex 33.4338 62.5779 66.5
      vertex 29.4578 63.9503 68.5
      vertex 33.4338 62.5779 68.5
    endloop
  endfacet
  facet normal 0.326286 0.945271 0
    outer loop
      vertex 29.4578 63.9503 68.5
      vertex 33.4338 62.5779 66.5
      vertex 29.4578 63.9503 66.5
    endloop
  endfacet
  facet normal 0.496993 0.867755 -0
    outer loop
      vertex 48.3159 55.4177 66.5
      vertex 44.7693 57.4489 68.5
      vertex 48.3159 55.4177 68.5
    endloop
  endfacet
  facet normal 0.496993 0.867755 0
    outer loop
      vertex 44.7693 57.4489 68.5
      vertex 48.3159 55.4177 66.5
      vertex 44.7693 57.4489 66.5
    endloop
  endfacet
  facet normal -0.895479 0.445103 0
    outer loop
      vertex -76.7403 24.5482 66.5
      vertex -75.0934 27.8615 68.5
      vertex -75.0934 27.8615 66.5
    endloop
  endfacet
  facet normal -0.895479 0.445103 0
    outer loop
      vertex -75.0934 27.8615 68.5
      vertex -76.7403 24.5482 66.5
      vertex -76.7403 24.5482 68.5
    endloop
  endfacet
  facet normal -0.69836 0.715747 0
    outer loop
      vertex -61.0865 45.8354 66.5
      vertex -63.8814 43.1084 68.5
      vertex -61.0865 45.8354 68.5
    endloop
  endfacet
  facet normal -0.69836 0.715747 0
    outer loop
      vertex -63.8814 43.1084 68.5
      vertex -61.0865 45.8354 66.5
      vertex -63.8814 43.1084 66.5
    endloop
  endfacet
  facet normal -0.152638 0.988282 0
    outer loop
      vertex -12.8589 67.6566 66.5
      vertex -17.0903 67.0031 68.5
      vertex -12.8589 67.6566 68.5
    endloop
  endfacet
  facet normal -0.152638 0.988282 0
    outer loop
      vertex -17.0903 67.0031 68.5
      vertex -12.8589 67.6566 66.5
      vertex -17.0903 67.0031 66.5
    endloop
  endfacet
  facet normal -0.69836 -0.715747 0
    outer loop
      vertex -63.8814 -43.1084 66.5
      vertex -61.0865 -45.8354 68.5
      vertex -63.8814 -43.1084 68.5
    endloop
  endfacet
  facet normal -0.69836 -0.715747 -0
    outer loop
      vertex -61.0865 -45.8354 68.5
      vertex -63.8814 -43.1084 66.5
      vertex -61.0865 -45.8354 66.5
    endloop
  endfacet
  facet normal -0.987749 -0.156049 0
    outer loop
      vertex -81.188 -10.7158 66.5
      vertex -81.7497 -7.1602 68.5
      vertex -81.7497 -7.1602 66.5
    endloop
  endfacet
  facet normal -0.987749 -0.156049 0
    outer loop
      vertex -81.7497 -7.1602 68.5
      vertex -81.188 -10.7158 66.5
      vertex -81.188 -10.7158 68.5
    endloop
  endfacet
  facet normal 0.987749 0.156049 0
    outer loop
      vertex 81.7497 7.1602 68.5
      vertex 81.188 10.7158 66.5
      vertex 81.188 10.7158 68.5
    endloop
  endfacet
  facet normal 0.987749 0.156049 0
    outer loop
      vertex 81.188 10.7158 66.5
      vertex 81.7497 7.1602 68.5
      vertex 81.7497 7.1602 66.5
    endloop
  endfacet
  facet normal 0.99557 0.0940233 0
    outer loop
      vertex 82.0873 3.58501 68.5
      vertex 81.7497 7.1602 66.5
      vertex 81.7497 7.1602 68.5
    endloop
  endfacet
  facet normal 0.99557 0.0940233 0
    outer loop
      vertex 81.7497 7.1602 66.5
      vertex 82.0873 3.58501 68.5
      vertex 82.0873 3.58501 66.5
    endloop
  endfacet
  facet normal 0.771473 0.636262 0
    outer loop
      vertex 68.9387 37.3078 68.5
      vertex 66.5012 40.2633 66.5
      vertex 66.5012 40.2633 68.5
    endloop
  endfacet
  facet normal 0.771473 0.636262 0
    outer loop
      vertex 66.5012 40.2633 66.5
      vertex 68.9387 37.3078 68.5
      vertex 68.9387 37.3078 66.5
    endloop
  endfacet
  facet normal 0.239651 0.970859 -0
    outer loop
      vertex 25.4012 65.1474 66.5
      vertex 21.2749 66.1659 68.5
      vertex 25.4012 65.1474 68.5
    endloop
  endfacet
  facet normal 0.239651 0.970859 0
    outer loop
      vertex 21.2749 66.1659 68.5
      vertex 25.4012 65.1474 66.5
      vertex 21.2749 66.1659 66.5
    endloop
  endfacet
  facet normal 0.283032 0.959111 -0
    outer loop
      vertex 29.4578 63.9503 66.5
      vertex 25.4012 65.1474 68.5
      vertex 29.4578 63.9503 68.5
    endloop
  endfacet
  facet normal 0.283032 0.959111 0
    outer loop
      vertex 25.4012 65.1474 68.5
      vertex 29.4578 63.9503 66.5
      vertex 25.4012 65.1474 66.5
    endloop
  endfacet
  facet normal 0.579861 0.814716 -0
    outer loop
      vertex 55.0025 50.9054 66.5
      vertex 51.7301 53.2345 68.5
      vertex 55.0025 50.9054 68.5
    endloop
  endfacet
  facet normal 0.579861 0.814716 0
    outer loop
      vertex 51.7301 53.2345 68.5
      vertex 55.0025 50.9054 66.5
      vertex 51.7301 53.2345 66.5
    endloop
  endfacet
  facet normal -0.942245 0.334925 0
    outer loop
      vertex -79.3991 17.7291 66.5
      vertex -78.1768 21.1677 68.5
      vertex -78.1768 21.1677 66.5
    endloop
  endfacet
  facet normal -0.942245 0.334925 0
    outer loop
      vertex -78.1768 21.1677 68.5
      vertex -79.3991 17.7291 66.5
      vertex -79.3991 17.7291 68.5
    endloop
  endfacet
  facet normal -0.73564 0.677373 0
    outer loop
      vertex -66.5012 40.2633 66.5
      vertex -63.8814 43.1084 68.5
      vertex -63.8814 43.1084 66.5
    endloop
  endfacet
  facet normal -0.73564 0.677373 0
    outer loop
      vertex -63.8814 43.1084 68.5
      vertex -66.5012 40.2633 66.5
      vertex -66.5012 40.2633 68.5
    endloop
  endfacet
  facet normal -0.92035 0.391097 0
    outer loop
      vertex -78.1768 21.1677 66.5
      vertex -76.7403 24.5482 68.5
      vertex -76.7403 24.5482 66.5
    endloop
  endfacet
  facet normal -0.92035 0.391097 0
    outer loop
      vertex -76.7403 24.5482 68.5
      vertex -78.1768 21.1677 66.5
      vertex -78.1768 21.1677 68.5
    endloop
  endfacet
  facet normal -0.454797 0.890595 0
    outer loop
      vertex -41.1 59.3227 66.5
      vertex -44.7693 57.4489 68.5
      vertex -41.1 59.3227 68.5
    endloop
  endfacet
  facet normal -0.454797 0.890595 0
    outer loop
      vertex -44.7693 57.4489 68.5
      vertex -41.1 59.3227 66.5
      vertex -44.7693 57.4489 66.5
    endloop
  endfacet
  facet normal -0.412231 0.91108 0
    outer loop
      vertex -37.318 61.0339 66.5
      vertex -41.1 59.3227 68.5
      vertex -37.318 61.0339 68.5
    endloop
  endfacet
  facet normal -0.412231 0.91108 0
    outer loop
      vertex -41.1 59.3227 68.5
      vertex -37.318 61.0339 66.5
      vertex -41.1 59.3227 66.5
    endloop
  endfacet
  facet normal -0.579861 0.814716 0
    outer loop
      vertex -51.7301 53.2345 66.5
      vertex -55.0025 50.9054 68.5
      vertex -51.7301 53.2345 68.5
    endloop
  endfacet
  facet normal -0.579861 0.814716 0
    outer loop
      vertex -55.0025 50.9054 68.5
      vertex -51.7301 53.2345 66.5
      vertex -55.0025 50.9054 66.5
    endloop
  endfacet
  facet normal -0.0654439 0.997856 0
    outer loop
      vertex -4.30202 68.4061 66.5
      vertex -8.59224 68.1247 68.5
      vertex -4.30202 68.4061 68.5
    endloop
  endfacet
  facet normal -0.0654439 0.997856 0
    outer loop
      vertex -8.59224 68.1247 68.5
      vertex -4.30202 68.4061 66.5
      vertex -8.59224 68.1247 66.5
    endloop
  endfacet
  facet normal 0.109057 -0.994036 0
    outer loop
      vertex 8.59224 -68.1247 66.5
      vertex 12.8589 -67.6566 68.5
      vertex 8.59224 -68.1247 68.5
    endloop
  endfacet
  facet normal 0.109057 -0.994036 0
    outer loop
      vertex 12.8589 -67.6566 68.5
      vertex 8.59224 -68.1247 66.5
      vertex 12.8589 -67.6566 66.5
    endloop
  endfacet
  facet normal 0.326286 -0.945271 0
    outer loop
      vertex 29.4578 -63.9503 66.5
      vertex 33.4338 -62.5779 68.5
      vertex 29.4578 -63.9503 68.5
    endloop
  endfacet
  facet normal 0.326286 -0.945271 0
    outer loop
      vertex 33.4338 -62.5779 68.5
      vertex 29.4578 -63.9503 66.5
      vertex 33.4338 -62.5779 66.5
    endloop
  endfacet
  facet normal 0.496993 -0.867755 0
    outer loop
      vertex 44.7693 -57.4489 66.5
      vertex 48.3159 -55.4177 68.5
      vertex 44.7693 -57.4489 68.5
    endloop
  endfacet
  facet normal 0.496993 -0.867755 0
    outer loop
      vertex 48.3159 -55.4177 68.5
      vertex 44.7693 -57.4489 66.5
      vertex 48.3159 -55.4177 66.5
    endloop
  endfacet
  facet normal 0.987749 -0.156049 0
    outer loop
      vertex 81.188 -10.7158 68.5
      vertex 81.7497 -7.1602 66.5
      vertex 81.7497 -7.1602 68.5
    endloop
  endfacet
  facet normal 0.987749 -0.156049 0
    outer loop
      vertex 81.7497 -7.1602 66.5
      vertex 81.188 -10.7158 68.5
      vertex 81.188 -10.7158 66.5
    endloop
  endfacet
  facet normal -0.620287 -0.784375 0
    outer loop
      vertex -58.1242 -48.4368 66.5
      vertex -55.0025 -50.9054 68.5
      vertex -58.1242 -48.4368 68.5
    endloop
  endfacet
  facet normal -0.620287 -0.784375 -0
    outer loop
      vertex -55.0025 -50.9054 68.5
      vertex -58.1242 -48.4368 66.5
      vertex -55.0025 -50.9054 66.5
    endloop
  endfacet
  facet normal -0.152638 -0.988282 0
    outer loop
      vertex -17.0903 -67.0031 66.5
      vertex -12.8589 -67.6566 68.5
      vertex -17.0903 -67.0031 68.5
    endloop
  endfacet
  facet normal -0.152638 -0.988282 -0
    outer loop
      vertex -12.8589 -67.6566 68.5
      vertex -17.0903 -67.0031 66.5
      vertex -12.8589 -67.6566 66.5
    endloop
  endfacet
  facet normal -0.92035 -0.391097 0
    outer loop
      vertex -76.7403 -24.5482 66.5
      vertex -78.1768 -21.1677 68.5
      vertex -78.1768 -21.1677 66.5
    endloop
  endfacet
  facet normal -0.92035 -0.391097 0
    outer loop
      vertex -78.1768 -21.1677 68.5
      vertex -76.7403 -24.5482 66.5
      vertex -76.7403 -24.5482 68.5
    endloop
  endfacet
  facet normal 0 0 -1
    outer loop
      vertex -63.5 25 66.5
      vertex -57.5 35 66.5
      vertex -61.25 25 66.5
    endloop
  endfacet
  facet normal -0 0 -1
    outer loop
      vertex -57.5 35 66.5
      vertex -63.5 25 66.5
      vertex -68.9387 37.3078 66.5
    endloop
  endfacet
  facet normal 0 0 -1
    outer loop
      vertex -57.5 35 66.5
      vertex -63.8814 43.1084 66.5
      vertex -61.0865 45.8354 66.5
    endloop
  endfacet
  facet normal -0 0 -1
    outer loop
      vertex -61.25 -25 66.5
      vertex -68.9387 -37.3078 66.5
      vertex -63.5 -25 66.5
    endloop
  endfacet
  facet normal 0 0 -1
    outer loop
      vertex -71.1873 -34.25 66.5
      vertex -63.5 -25 66.5
      vertex -68.9387 -37.3078 66.5
    endloop
  endfacet
  facet normal 0 0 -1
    outer loop
      vertex -57.5 35 66.5
      vertex -66.5012 40.2633 66.5
      vertex -63.8814 43.1084 66.5
    endloop
  endfacet
  facet normal 0 0 -1
    outer loop
      vertex -73.2407 -31.0983 66.5
      vertex -63.5 -25 66.5
      vertex -71.1873 -34.25 66.5
    endloop
  endfacet
  facet normal 0 0 -1
    outer loop
      vertex -57.5 35 66.5
      vertex -68.9387 37.3078 66.5
      vertex -66.5012 40.2633 66.5
    endloop
  endfacet
  facet normal 0 0 -1
    outer loop
      vertex -75.0934 -27.8615 66.5
      vertex -63.5 -25 66.5
      vertex -73.2407 -31.0983 66.5
    endloop
  endfacet
  facet normal 0 0 -1
    outer loop
      vertex -63.5 25 66.5
      vertex -71.1873 34.25 66.5
      vertex -68.9387 37.3078 66.5
    endloop
  endfacet
  facet normal 0 0 -1
    outer loop
      vertex -76.7403 -24.5482 66.5
      vertex -63.5 -25 66.5
      vertex -75.0934 -27.8615 66.5
    endloop
  endfacet
  facet normal 0 0 -1
    outer loop
      vertex -63.5 25 66.5
      vertex -73.2407 31.0983 66.5
      vertex -71.1873 34.25 66.5
    endloop
  endfacet
  facet normal 0 0 -1
    outer loop
      vertex -78.1768 -21.1677 66.5
      vertex -63.5 -25 66.5
      vertex -76.7403 -24.5482 66.5
    endloop
  endfacet
  facet normal 0 0 -1
    outer loop
      vertex -63.5 25 66.5
      vertex -75.0934 27.8615 66.5
      vertex -73.2407 31.0983 66.5
    endloop
  endfacet
  facet normal 0 0 -1
    outer loop
      vertex -79.3991 -17.7291 66.5
      vertex -63.5 -25 66.5
      vertex -78.1768 -21.1677 66.5
    endloop
  endfacet
  facet normal -0 0 -1
    outer loop
      vertex -63.5 25 66.5
      vertex -76.7403 24.5482 66.5
      vertex -75.0934 27.8615 66.5
    endloop
  endfacet
  facet normal 0 0 -1
    outer loop
      vertex -80.4037 -14.242 66.5
      vertex -63.5 -25 66.5
      vertex -79.3991 -17.7291 66.5
    endloop
  endfacet
  facet normal 0 0 -1
    outer loop
      vertex -63.5 25 66.5
      vertex -78.1768 21.1677 66.5
      vertex -76.7403 24.5482 66.5
    endloop
  endfacet
  facet normal 0 0 -1
    outer loop
      vertex -81.188 -10.7158 66.5
      vertex -63.5 -25 66.5
      vertex -80.4037 -14.242 66.5
    endloop
  endfacet
  facet normal 0 0 -1
    outer loop
      vertex -63.5 25 66.5
      vertex -79.3991 17.7291 66.5
      vertex -78.1768 21.1677 66.5
    endloop
  endfacet
  facet normal 0 0 -1
    outer loop
      vertex -81.7497 -7.1602 66.5
      vertex -63.5 -25 66.5
      vertex -81.188 -10.7158 66.5
    endloop
  endfacet
  facet normal 0 0 -1
    outer loop
      vertex -63.5 25 66.5
      vertex -80.4037 14.242 66.5
      vertex -79.3991 17.7291 66.5
    endloop
  endfacet
  facet normal 0 0 -1
    outer loop
      vertex -82.0873 -3.58501 66.5
      vertex -63.5 -25 66.5
      vertex -81.7497 -7.1602 66.5
    endloop
  endfacet
  facet normal 0 0 -1
    outer loop
      vertex -63.5 25 66.5
      vertex -81.188 10.7158 66.5
      vertex -80.4037 14.242 66.5
    endloop
  endfacet
  facet normal 0 0 -1
    outer loop
      vertex -82.2 0 66.5
      vertex -63.5 -25 66.5
      vertex -82.0873 -3.58501 66.5
    endloop
  endfacet
  facet normal 0 0 -1
    outer loop
      vertex -63.5 25 66.5
      vertex -81.7497 7.1602 66.5
      vertex -81.188 10.7158 66.5
    endloop
  endfacet
  facet normal 0 0 -1
    outer loop
      vertex -63.5 -25 66.5
      vertex -82.2 0 66.5
      vertex -63.5 25 66.5
    endloop
  endfacet
  facet normal 0 0 -1
    outer loop
      vertex -63.5 25 66.5
      vertex -82.0873 3.58501 66.5
      vertex -81.7497 7.1602 66.5
    endloop
  endfacet
  facet normal 0 0 -1
    outer loop
      vertex -63.5 25 66.5
      vertex -82.2 0 66.5
      vertex -82.0873 3.58501 66.5
    endloop
  endfacet
  facet normal 0 0 -1
    outer loop
      vertex 44.7693 -57.4489 66.5
      vertex 45 -41 66.5
      vertex 48.3159 -55.4177 66.5
    endloop
  endfacet
  facet normal 0 0 -1
    outer loop
      vertex 41.1 -59.3227 66.5
      vertex 45 -41 66.5
      vertex 44.7693 -57.4489 66.5
    endloop
  endfacet
  facet normal 0 0 -1
    outer loop
      vertex 37.318 -61.0339 66.5
      vertex 45 -41 66.5
      vertex 41.1 -59.3227 66.5
    endloop
  endfacet
  facet normal 0 0 -1
    outer loop
      vertex 33.4338 -62.5779 66.5
      vertex 45 -41 66.5
      vertex 37.318 -61.0339 66.5
    endloop
  endfacet
  facet normal 0 0 -1
    outer loop
      vertex 29.4578 -63.9503 66.5
      vertex 45 -41 66.5
      vertex 33.4338 -62.5779 66.5
    endloop
  endfacet
  facet normal 0 0 -1
    outer loop
      vertex 25.4012 -65.1474 66.5
      vertex 45 -41 66.5
      vertex 29.4578 -63.9503 66.5
    endloop
  endfacet
  facet normal 0 0 -1
    outer loop
      vertex 21.2749 -66.1659 66.5
      vertex 45 -41 66.5
      vertex 25.4012 -65.1474 66.5
    endloop
  endfacet
  facet normal 0 0 -1
    outer loop
      vertex 17.0903 -67.0031 66.5
      vertex 45 -41 66.5
      vertex 21.2749 -66.1659 66.5
    endloop
  endfacet
  facet normal 0 0 -1
    outer loop
      vertex 12.8589 -67.6566 66.5
      vertex 45 -41 66.5
      vertex 17.0903 -67.0031 66.5
    endloop
  endfacet
  facet normal 0 0 -1
    outer loop
      vertex 8.59224 -68.1247 66.5
      vertex 45 -41 66.5
      vertex 12.8589 -67.6566 66.5
    endloop
  endfacet
  facet normal 0 0 -1
    outer loop
      vertex 4.30202 -68.4061 66.5
      vertex 45 -41 66.5
      vertex 8.59224 -68.1247 66.5
    endloop
  endfacet
  facet normal 0 0 -1
    outer loop
      vertex 0 -68.5 66.5
      vertex 45 -41 66.5
      vertex 4.30202 -68.4061 66.5
    endloop
  endfacet
  facet normal 0 0 -1
    outer loop
      vertex -45 -41 66.5
      vertex 0 -68.5 66.5
      vertex -4.30202 -68.4061 66.5
    endloop
  endfacet
  facet normal 0 0 -1
    outer loop
      vertex -45 -41 66.5
      vertex -4.30202 -68.4061 66.5
      vertex -8.59224 -68.1247 66.5
    endloop
  endfacet
  facet normal 0 0 -1
    outer loop
      vertex -45 -41 66.5
      vertex -8.59224 -68.1247 66.5
      vertex -12.8589 -67.6566 66.5
    endloop
  endfacet
  facet normal 0 0 -1
    outer loop
      vertex -45 -41 66.5
      vertex -12.8589 -67.6566 66.5
      vertex -17.0903 -67.0031 66.5
    endloop
  endfacet
  facet normal 0 0 -1
    outer loop
      vertex -45 -41 66.5
      vertex -17.0903 -67.0031 66.5
      vertex -21.2749 -66.1659 66.5
    endloop
  endfacet
  facet normal 0 0 -1
    outer loop
      vertex -45 -41 66.5
      vertex -21.2749 -66.1659 66.5
      vertex -25.4012 -65.1474 66.5
    endloop
  endfacet
  facet normal 0 0 -1
    outer loop
      vertex -45 -41 66.5
      vertex -25.4012 -65.1474 66.5
      vertex -29.4578 -63.9503 66.5
    endloop
  endfacet
  facet normal 0 0 -1
    outer loop
      vertex -45 -41 66.5
      vertex -29.4578 -63.9503 66.5
      vertex -33.4338 -62.5779 66.5
    endloop
  endfacet
  facet normal 0 0 -1
    outer loop
      vertex -45 -41 66.5
      vertex -33.4338 -62.5779 66.5
      vertex -37.318 -61.0339 66.5
    endloop
  endfacet
  facet normal 0 0 -1
    outer loop
      vertex -45 -41 66.5
      vertex -37.318 -61.0339 66.5
      vertex -41.1 -59.3227 66.5
    endloop
  endfacet
  facet normal 0 0 -1
    outer loop
      vertex -45 -41 66.5
      vertex -41.1 -59.3227 66.5
      vertex -44.7693 -57.4489 66.5
    endloop
  endfacet
  facet normal 0 0 -1
    outer loop
      vertex 0 -68.5 66.5
      vertex -45 -41 66.5
      vertex 45 -41 66.5
    endloop
  endfacet
  facet normal 0 0 -1
    outer loop
      vertex -51.7301 -53.2345 66.5
      vertex -45 -41 66.5
      vertex -48.3159 -55.4177 66.5
    endloop
  endfacet
  facet normal 0 0 -1
    outer loop
      vertex -48.3159 -55.4177 66.5
      vertex -45 -41 66.5
      vertex -44.7693 -57.4489 66.5
    endloop
  endfacet
  facet normal -0 0 -1
    outer loop
      vertex 61.0865 45.8354 66.5
      vertex 57.5 35 66.5
      vertex 58.1242 48.4368 66.5
    endloop
  endfacet
  facet normal 0 0 -1
    outer loop
      vertex 45 41 66.5
      vertex 58.1242 48.4368 66.5
      vertex 57.5 35 66.5
    endloop
  endfacet
  facet normal -0 0 -1
    outer loop
      vertex 58.1242 48.4368 66.5
      vertex 45 41 66.5
      vertex 55.0025 50.9054 66.5
    endloop
  endfacet
  facet normal -0 0 -1
    outer loop
      vertex 55.0025 50.9054 66.5
      vertex 45 41 66.5
      vertex 51.7301 53.2345 66.5
    endloop
  endfacet
  facet normal 0 0 -1
    outer loop
      vertex 45 41 66.5
      vertex 57.5 35 66.5
      vertex 45 38.75 66.5
    endloop
  endfacet
  facet normal 0 0 -1
    outer loop
      vertex 57.5 35 66.5
      vertex -45 38.75 66.5
      vertex 45 38.75 66.5
    endloop
  endfacet
  facet normal 0 0 -1
    outer loop
      vertex -57.5 35 66.5
      vertex -45 41 66.5
      vertex -45 38.75 66.5
    endloop
  endfacet
  facet normal 0 0 -1
    outer loop
      vertex -45 41 66.5
      vertex -51.7301 53.2345 66.5
      vertex -48.3159 55.4177 66.5
    endloop
  endfacet
  facet normal 0 0 -1
    outer loop
      vertex -45 41 66.5
      vertex -55.0025 50.9054 66.5
      vertex -51.7301 53.2345 66.5
    endloop
  endfacet
  facet normal 0 0 -1
    outer loop
      vertex -57.5 35 66.5
      vertex -45 38.75 66.5
      vertex 57.5 35 66.5
    endloop
  endfacet
  facet normal -0 0 -1
    outer loop
      vertex -45 41 66.5
      vertex -57.5 35 66.5
      vertex -58.1242 48.4368 66.5
    endloop
  endfacet
  facet normal 0 0 -1
    outer loop
      vertex -45 41 66.5
      vertex -58.1242 48.4368 66.5
      vertex -55.0025 50.9054 66.5
    endloop
  endfacet
  facet normal 0 0 -1
    outer loop
      vertex -57.5 -35 66.5
      vertex -61.25 -25 66.5
      vertex -57.5 35 66.5
    endloop
  endfacet
  facet normal 0 0 -1
    outer loop
      vertex -61.25 -25 66.5
      vertex -58.1242 -48.4368 66.5
      vertex -61.0865 -45.8354 66.5
    endloop
  endfacet
  facet normal 0 0 -1
    outer loop
      vertex -61.25 25 66.5
      vertex -57.5 35 66.5
      vertex -61.25 -25 66.5
    endloop
  endfacet
  facet normal 0 0 -1
    outer loop
      vertex -57.5 35 66.5
      vertex -61.0865 45.8354 66.5
      vertex -58.1242 48.4368 66.5
    endloop
  endfacet
  facet normal 0 0 -1
    outer loop
      vertex -63.8814 -43.1084 66.5
      vertex -61.25 -25 66.5
      vertex -61.0865 -45.8354 66.5
    endloop
  endfacet
  facet normal 0 0 -1
    outer loop
      vertex -68.9387 -37.3078 66.5
      vertex -61.25 -25 66.5
      vertex -66.5012 -40.2633 66.5
    endloop
  endfacet
  facet normal 0 0 -1
    outer loop
      vertex -66.5012 -40.2633 66.5
      vertex -61.25 -25 66.5
      vertex -63.8814 -43.1084 66.5
    endloop
  endfacet
  facet normal -0 0 -1
    outer loop
      vertex 51.7301 53.2345 66.5
      vertex 45 41 66.5
      vertex 48.3159 55.4177 66.5
    endloop
  endfacet
  facet normal 0 0 -1
    outer loop
      vertex 45 41 66.5
      vertex 44.7693 57.4489 66.5
      vertex 48.3159 55.4177 66.5
    endloop
  endfacet
  facet normal 0 0 -1
    outer loop
      vertex 45 41 66.5
      vertex 41.1 59.3227 66.5
      vertex 44.7693 57.4489 66.5
    endloop
  endfacet
  facet normal 0 0 -1
    outer loop
      vertex 45 41 66.5
      vertex 37.318 61.0339 66.5
      vertex 41.1 59.3227 66.5
    endloop
  endfacet
  facet normal 0 0 -1
    outer loop
      vertex 45 41 66.5
      vertex 33.4338 62.5779 66.5
      vertex 37.318 61.0339 66.5
    endloop
  endfacet
  facet normal 0 0 -1
    outer loop
      vertex 45 41 66.5
      vertex 29.4578 63.9503 66.5
      vertex 33.4338 62.5779 66.5
    endloop
  endfacet
  facet normal 0 0 -1
    outer loop
      vertex 45 41 66.5
      vertex 25.4012 65.1474 66.5
      vertex 29.4578 63.9503 66.5
    endloop
  endfacet
  facet normal 0 0 -1
    outer loop
      vertex 45 41 66.5
      vertex 21.2749 66.1659 66.5
      vertex 25.4012 65.1474 66.5
    endloop
  endfacet
  facet normal 0 0 -1
    outer loop
      vertex 45 41 66.5
      vertex 17.0903 67.0031 66.5
      vertex 21.2749 66.1659 66.5
    endloop
  endfacet
  facet normal 0 0 -1
    outer loop
      vertex 45 41 66.5
      vertex 12.8589 67.6566 66.5
      vertex 17.0903 67.0031 66.5
    endloop
  endfacet
  facet normal 0 0 -1
    outer loop
      vertex 45 41 66.5
      vertex 8.59224 68.1247 66.5
      vertex 12.8589 67.6566 66.5
    endloop
  endfacet
  facet normal 0 0 -1
    outer loop
      vertex 45 41 66.5
      vertex 4.30202 68.4061 66.5
      vertex 8.59224 68.1247 66.5
    endloop
  endfacet
  facet normal 0 0 -1
    outer loop
      vertex 45 41 66.5
      vertex 0 68.5 66.5
      vertex 4.30202 68.4061 66.5
    endloop
  endfacet
  facet normal 0 0 -1
    outer loop
      vertex -45 41 66.5
      vertex 0 68.5 66.5
      vertex 45 41 66.5
    endloop
  endfacet
  facet normal 0 0 -1
    outer loop
      vertex 0 68.5 66.5
      vertex -45 41 66.5
      vertex -4.30202 68.4061 66.5
    endloop
  endfacet
  facet normal 0 0 -1
    outer loop
      vertex -4.30202 68.4061 66.5
      vertex -45 41 66.5
      vertex -8.59224 68.1247 66.5
    endloop
  endfacet
  facet normal 0 0 -1
    outer loop
      vertex -8.59224 68.1247 66.5
      vertex -45 41 66.5
      vertex -12.8589 67.6566 66.5
    endloop
  endfacet
  facet normal 0 0 -1
    outer loop
      vertex -12.8589 67.6566 66.5
      vertex -45 41 66.5
      vertex -17.0903 67.0031 66.5
    endloop
  endfacet
  facet normal 0 0 -1
    outer loop
      vertex -17.0903 67.0031 66.5
      vertex -45 41 66.5
      vertex -21.2749 66.1659 66.5
    endloop
  endfacet
  facet normal 0 0 -1
    outer loop
      vertex -21.2749 66.1659 66.5
      vertex -45 41 66.5
      vertex -25.4012 65.1474 66.5
    endloop
  endfacet
  facet normal 0 0 -1
    outer loop
      vertex -25.4012 65.1474 66.5
      vertex -45 41 66.5
      vertex -29.4578 63.9503 66.5
    endloop
  endfacet
  facet normal 0 0 -1
    outer loop
      vertex -29.4578 63.9503 66.5
      vertex -45 41 66.5
      vertex -33.4338 62.5779 66.5
    endloop
  endfacet
  facet normal 0 0 -1
    outer loop
      vertex -33.4338 62.5779 66.5
      vertex -45 41 66.5
      vertex -37.318 61.0339 66.5
    endloop
  endfacet
  facet normal 0 0 -1
    outer loop
      vertex -37.318 61.0339 66.5
      vertex -45 41 66.5
      vertex -41.1 59.3227 66.5
    endloop
  endfacet
  facet normal 0 0 -1
    outer loop
      vertex -41.1 59.3227 66.5
      vertex -45 41 66.5
      vertex -44.7693 57.4489 66.5
    endloop
  endfacet
  facet normal 0 0 -1
    outer loop
      vertex -44.7693 57.4489 66.5
      vertex -45 41 66.5
      vertex -48.3159 55.4177 66.5
    endloop
  endfacet
  facet normal 0 0 -1
    outer loop
      vertex 63.5 -25 66.5
      vertex 82.2 0 66.5
      vertex 82.0873 -3.58501 66.5
    endloop
  endfacet
  facet normal 0 0 -1
    outer loop
      vertex 63.5 -25 66.5
      vertex 82.0873 -3.58501 66.5
      vertex 81.7497 -7.1602 66.5
    endloop
  endfacet
  facet normal 0 0 -1
    outer loop
      vertex 63.5 25 66.5
      vertex 82.2 0 66.5
      vertex 63.5 -25 66.5
    endloop
  endfacet
  facet normal 0 0 -1
    outer loop
      vertex 63.5 -25 66.5
      vertex 81.7497 -7.1602 66.5
      vertex 81.188 -10.7158 66.5
    endloop
  endfacet
  facet normal 0 0 -1
    outer loop
      vertex 82.2 0 66.5
      vertex 63.5 25 66.5
      vertex 82.0873 3.58501 66.5
    endloop
  endfacet
  facet normal 0 0 -1
    outer loop
      vertex 63.5 -25 66.5
      vertex 81.188 -10.7158 66.5
      vertex 80.4037 -14.242 66.5
    endloop
  endfacet
  facet normal 0 0 -1
    outer loop
      vertex 82.0873 3.58501 66.5
      vertex 63.5 25 66.5
      vertex 81.7497 7.1602 66.5
    endloop
  endfacet
  facet normal 0 0 -1
    outer loop
      vertex 63.5 -25 66.5
      vertex 80.4037 -14.242 66.5
      vertex 79.3991 -17.7291 66.5
    endloop
  endfacet
  facet normal 0 0 -1
    outer loop
      vertex 81.7497 7.1602 66.5
      vertex 63.5 25 66.5
      vertex 81.188 10.7158 66.5
    endloop
  endfacet
  facet normal 0 0 -1
    outer loop
      vertex 63.5 -25 66.5
      vertex 79.3991 -17.7291 66.5
      vertex 78.1768 -21.1677 66.5
    endloop
  endfacet
  facet normal 0 0 -1
    outer loop
      vertex 81.188 10.7158 66.5
      vertex 63.5 25 66.5
      vertex 80.4037 14.242 66.5
    endloop
  endfacet
  facet normal 0 0 -1
    outer loop
      vertex 63.5 -25 66.5
      vertex 78.1768 -21.1677 66.5
      vertex 76.7403 -24.5482 66.5
    endloop
  endfacet
  facet normal 0 0 -1
    outer loop
      vertex 80.4037 14.242 66.5
      vertex 63.5 25 66.5
      vertex 79.3991 17.7291 66.5
    endloop
  endfacet
  facet normal 0 0 -1
    outer loop
      vertex 63.5 -25 66.5
      vertex 76.7403 -24.5482 66.5
      vertex 75.0934 -27.8615 66.5
    endloop
  endfacet
  facet normal 0 0 -1
    outer loop
      vertex 79.3991 17.7291 66.5
      vertex 63.5 25 66.5
      vertex 78.1768 21.1677 66.5
    endloop
  endfacet
  facet normal 0 0 -1
    outer loop
      vertex 63.5 -25 66.5
      vertex 75.0934 -27.8615 66.5
      vertex 73.2407 -31.0983 66.5
    endloop
  endfacet
  facet normal 0 0 -1
    outer loop
      vertex 78.1768 21.1677 66.5
      vertex 63.5 25 66.5
      vertex 76.7403 24.5482 66.5
    endloop
  endfacet
  facet normal 0 0 -1
    outer loop
      vertex 63.5 -25 66.5
      vertex 73.2407 -31.0983 66.5
      vertex 71.1873 -34.25 66.5
    endloop
  endfacet
  facet normal 0 0 -1
    outer loop
      vertex 76.7403 24.5482 66.5
      vertex 63.5 25 66.5
      vertex 75.0934 27.8615 66.5
    endloop
  endfacet
  facet normal 0 0 -1
    outer loop
      vertex 63.5 -25 66.5
      vertex 71.1873 -34.25 66.5
      vertex 68.9387 -37.3078 66.5
    endloop
  endfacet
  facet normal -0 0 -1
    outer loop
      vertex 75.0934 27.8615 66.5
      vertex 63.5 25 66.5
      vertex 73.2407 31.0983 66.5
    endloop
  endfacet
  facet normal 0 0 -1
    outer loop
      vertex 57.5 -35 66.5
      vertex 68.9387 -37.3078 66.5
      vertex 66.5012 -40.2633 66.5
    endloop
  endfacet
  facet normal -0 0 -1
    outer loop
      vertex 73.2407 31.0983 66.5
      vertex 63.5 25 66.5
      vertex 71.1873 34.25 66.5
    endloop
  endfacet
  facet normal 0 0 -1
    outer loop
      vertex 57.5 -35 66.5
      vertex 66.5012 -40.2633 66.5
      vertex 63.8814 -43.1084 66.5
    endloop
  endfacet
  facet normal -0 0 -1
    outer loop
      vertex 71.1873 34.25 66.5
      vertex 63.5 25 66.5
      vertex 68.9387 37.3078 66.5
    endloop
  endfacet
  facet normal 0 0 -1
    outer loop
      vertex 57.5 35 66.5
      vertex 63.5 25 66.5
      vertex 61.25 25 66.5
    endloop
  endfacet
  facet normal 0 0 -1
    outer loop
      vertex 68.9387 -37.3078 66.5
      vertex 57.5 -35 66.5
      vertex 63.5 -25 66.5
    endloop
  endfacet
  facet normal -0 0 -1
    outer loop
      vertex 63.5 -25 66.5
      vertex 57.5 -35 66.5
      vertex 61.25 -25 66.5
    endloop
  endfacet
  facet normal 0 0 -1
    outer loop
      vertex 57.5 -35 66.5
      vertex 63.8814 -43.1084 66.5
      vertex 61.0865 -45.8354 66.5
    endloop
  endfacet
  facet normal 0 0 -1
    outer loop
      vertex 63.5 25 66.5
      vertex 57.5 35 66.5
      vertex 68.9387 37.3078 66.5
    endloop
  endfacet
  facet normal -0 0 -1
    outer loop
      vertex 68.9387 37.3078 66.5
      vertex 57.5 35 66.5
      vertex 66.5012 40.2633 66.5
    endloop
  endfacet
  facet normal -0 0 -1
    outer loop
      vertex 66.5012 40.2633 66.5
      vertex 57.5 35 66.5
      vertex 63.8814 43.1084 66.5
    endloop
  endfacet
  facet normal -0 0 -1
    outer loop
      vertex 61.25 -25 66.5
      vertex 57.5 -35 66.5
      vertex 61.25 25 66.5
    endloop
  endfacet
  facet normal 0 0 -1
    outer loop
      vertex 57.5 -35 66.5
      vertex 61.0865 -45.8354 66.5
      vertex 58.1242 -48.4368 66.5
    endloop
  endfacet
  facet normal 0 0 -1
    outer loop
      vertex 57.5 35 66.5
      vertex 61.25 25 66.5
      vertex 57.5 -35 66.5
    endloop
  endfacet
  facet normal -0 0 -1
    outer loop
      vertex 63.8814 43.1084 66.5
      vertex 57.5 35 66.5
      vertex 61.0865 45.8354 66.5
    endloop
  endfacet
  facet normal 0 0 -1
    outer loop
      vertex 45 -41 66.5
      vertex 58.1242 -48.4368 66.5
      vertex 55.0025 -50.9054 66.5
    endloop
  endfacet
  facet normal 0 0 -1
    outer loop
      vertex 45 -41 66.5
      vertex 55.0025 -50.9054 66.5
      vertex 51.7301 -53.2345 66.5
    endloop
  endfacet
  facet normal 0 0 -1
    outer loop
      vertex 45 -41 66.5
      vertex 51.7301 -53.2345 66.5
      vertex 48.3159 -55.4177 66.5
    endloop
  endfacet
  facet normal 0 0 -1
    outer loop
      vertex 58.1242 -48.4368 66.5
      vertex 45 -41 66.5
      vertex 57.5 -35 66.5
    endloop
  endfacet
  facet normal 0 0 -1
    outer loop
      vertex 45 -38.75 66.5
      vertex 57.5 -35 66.5
      vertex 45 -41 66.5
    endloop
  endfacet
  facet normal 0 0 -1
    outer loop
      vertex -45 -38.75 66.5
      vertex 57.5 -35 66.5
      vertex 45 -38.75 66.5
    endloop
  endfacet
  facet normal 0 0 -1
    outer loop
      vertex -55.0025 -50.9054 66.5
      vertex -45 -41 66.5
      vertex -51.7301 -53.2345 66.5
    endloop
  endfacet
  facet normal 0 0 -1
    outer loop
      vertex -58.1242 -48.4368 66.5
      vertex -45 -41 66.5
      vertex -55.0025 -50.9054 66.5
    endloop
  endfacet
  facet normal 0 0 -1
    outer loop
      vertex -45 -38.75 66.5
      vertex -57.5 -35 66.5
      vertex 57.5 -35 66.5
    endloop
  endfacet
  facet normal 0 -0 -1
    outer loop
      vertex -57.5 -35 66.5
      vertex -45 -41 66.5
      vertex -58.1242 -48.4368 66.5
    endloop
  endfacet
  facet normal 0 0 -1
    outer loop
      vertex -61.25 -25 66.5
      vertex -57.5 -35 66.5
      vertex -58.1242 -48.4368 66.5
    endloop
  endfacet
  facet normal 0 0 -1
    outer loop
      vertex -45 -41 66.5
      vertex -57.5 -35 66.5
      vertex -45 -38.75 66.5
    endloop
  endfacet
  facet normal 0.976149 0.217102 0
    outer loop
      vertex 81.188 10.7158 68.5
      vertex 80.4037 14.242 66.5
      vertex 80.4037 14.242 68.5
    endloop
  endfacet
  facet normal 0.976149 0.217102 0
    outer loop
      vertex 80.4037 14.242 66.5
      vertex 81.188 10.7158 68.5
      vertex 81.188 10.7158 66.5
    endloop
  endfacet
  facet normal 0.960917 0.276835 0
    outer loop
      vertex 80.4037 14.242 68.5
      vertex 79.3991 17.7291 66.5
      vertex 79.3991 17.7291 68.5
    endloop
  endfacet
  facet normal 0.960917 0.276835 0
    outer loop
      vertex 79.3991 17.7291 66.5
      vertex 80.4037 14.242 68.5
      vertex 80.4037 14.242 66.5
    endloop
  endfacet
  facet normal 0.942245 0.334925 0
    outer loop
      vertex 79.3991 17.7291 68.5
      vertex 78.1768 21.1677 66.5
      vertex 78.1768 21.1677 68.5
    endloop
  endfacet
  facet normal 0.942245 0.334925 0
    outer loop
      vertex 78.1768 21.1677 66.5
      vertex 79.3991 17.7291 68.5
      vertex 79.3991 17.7291 66.5
    endloop
  endfacet
  facet normal 0.73564 0.677373 0
    outer loop
      vertex 66.5012 40.2633 68.5
      vertex 63.8814 43.1084 66.5
      vertex 63.8814 43.1084 68.5
    endloop
  endfacet
  facet normal 0.73564 0.677373 0
    outer loop
      vertex 63.8814 43.1084 66.5
      vertex 66.5012 40.2633 68.5
      vertex 66.5012 40.2633 66.5
    endloop
  endfacet
  facet normal 0.69836 0.715747 -0
    outer loop
      vertex 63.8814 43.1084 66.5
      vertex 61.0865 45.8354 68.5
      vertex 63.8814 43.1084 68.5
    endloop
  endfacet
  facet normal 0.69836 0.715747 0
    outer loop
      vertex 61.0865 45.8354 68.5
      vertex 63.8814 43.1084 66.5
      vertex 61.0865 45.8354 66.5
    endloop
  endfacet
  facet normal 0.837851 0.5459 0
    outer loop
      vertex 73.2407 31.0983 68.5
      vertex 71.1873 34.25 66.5
      vertex 71.1873 34.25 68.5
    endloop
  endfacet
  facet normal 0.837851 0.5459 0
    outer loop
      vertex 71.1873 34.25 66.5
      vertex 73.2407 31.0983 68.5
      vertex 73.2407 31.0983 66.5
    endloop
  endfacet
  facet normal 0.867891 0.496755 0
    outer loop
      vertex 75.0934 27.8615 68.5
      vertex 73.2407 31.0983 66.5
      vertex 73.2407 31.0983 68.5
    endloop
  endfacet
  facet normal 0.867891 0.496755 0
    outer loop
      vertex 73.2407 31.0983 66.5
      vertex 75.0934 27.8615 68.5
      vertex 75.0934 27.8615 66.5
    endloop
  endfacet
  facet normal 0.109057 0.994036 -0
    outer loop
      vertex 12.8589 67.6566 66.5
      vertex 8.59224 68.1247 68.5
      vertex 12.8589 67.6566 68.5
    endloop
  endfacet
  facet normal 0.109057 0.994036 0
    outer loop
      vertex 8.59224 68.1247 68.5
      vertex 12.8589 67.6566 66.5
      vertex 8.59224 68.1247 66.5
    endloop
  endfacet
  facet normal 0.196179 0.980568 -0
    outer loop
      vertex 21.2749 66.1659 66.5
      vertex 17.0903 67.0031 68.5
      vertex 21.2749 66.1659 68.5
    endloop
  endfacet
  facet normal 0.196179 0.980568 0
    outer loop
      vertex 17.0903 67.0031 68.5
      vertex 21.2749 66.1659 66.5
      vertex 17.0903 67.0031 66.5
    endloop
  endfacet
  facet normal 0.152638 0.988282 -0
    outer loop
      vertex 17.0903 67.0031 66.5
      vertex 12.8589 67.6566 68.5
      vertex 17.0903 67.0031 68.5
    endloop
  endfacet
  facet normal 0.152638 0.988282 0
    outer loop
      vertex 12.8589 67.6566 68.5
      vertex 17.0903 67.0031 66.5
      vertex 12.8589 67.6566 66.5
    endloop
  endfacet
  facet normal 0.0654439 0.997856 -0
    outer loop
      vertex 8.59224 68.1247 66.5
      vertex 4.30202 68.4061 68.5
      vertex 8.59224 68.1247 68.5
    endloop
  endfacet
  facet normal 0.0654439 0.997856 0
    outer loop
      vertex 4.30202 68.4061 68.5
      vertex 8.59224 68.1247 66.5
      vertex 4.30202 68.4061 66.5
    endloop
  endfacet
  facet normal 0.454797 0.890595 -0
    outer loop
      vertex 44.7693 57.4489 66.5
      vertex 41.1 59.3227 68.5
      vertex 44.7693 57.4489 68.5
    endloop
  endfacet
  facet normal 0.454797 0.890595 0
    outer loop
      vertex 41.1 59.3227 68.5
      vertex 44.7693 57.4489 66.5
      vertex 41.1 59.3227 66.5
    endloop
  endfacet
  facet normal 0.412231 0.91108 -0
    outer loop
      vertex 41.1 59.3227 66.5
      vertex 37.318 61.0339 68.5
      vertex 41.1 59.3227 68.5
    endloop
  endfacet
  facet normal 0.412231 0.91108 0
    outer loop
      vertex 37.318 61.0339 68.5
      vertex 41.1 59.3227 66.5
      vertex 37.318 61.0339 66.5
    endloop
  endfacet
  facet normal -0.987749 0.156049 0
    outer loop
      vertex -81.7497 7.1602 66.5
      vertex -81.188 10.7158 68.5
      vertex -81.188 10.7158 66.5
    endloop
  endfacet
  facet normal -0.987749 0.156049 0
    outer loop
      vertex -81.188 10.7158 68.5
      vertex -81.7497 7.1602 66.5
      vertex -81.7497 7.1602 68.5
    endloop
  endfacet
  facet normal -0.771473 0.636262 0
    outer loop
      vertex -68.9387 37.3078 66.5
      vertex -66.5012 40.2633 68.5
      vertex -66.5012 40.2633 66.5
    endloop
  endfacet
  facet normal -0.771473 0.636262 0
    outer loop
      vertex -66.5012 40.2633 68.5
      vertex -68.9387 37.3078 66.5
      vertex -68.9387 37.3078 68.5
    endloop
  endfacet
  facet normal -0.805626 0.592425 0
    outer loop
      vertex -71.1873 34.25 66.5
      vertex -68.9387 37.3078 68.5
      vertex -68.9387 37.3078 66.5
    endloop
  endfacet
  facet normal -0.805626 0.592425 0
    outer loop
      vertex -68.9387 37.3078 68.5
      vertex -71.1873 34.25 66.5
      vertex -71.1873 34.25 68.5
    endloop
  endfacet
  facet normal -0.837851 0.5459 0
    outer loop
      vertex -73.2407 31.0983 66.5
      vertex -71.1873 34.25 68.5
      vertex -71.1873 34.25 66.5
    endloop
  endfacet
  facet normal -0.837851 0.5459 0
    outer loop
      vertex -71.1873 34.25 68.5
      vertex -73.2407 31.0983 66.5
      vertex -73.2407 31.0983 68.5
    endloop
  endfacet
  facet normal -0.960917 0.276835 0
    outer loop
      vertex -80.4037 14.242 66.5
      vertex -79.3991 17.7291 68.5
      vertex -79.3991 17.7291 66.5
    endloop
  endfacet
  facet normal -0.960917 0.276835 0
    outer loop
      vertex -79.3991 17.7291 68.5
      vertex -80.4037 14.242 66.5
      vertex -80.4037 14.242 68.5
    endloop
  endfacet
  facet normal -0.99557 0.0940233 0
    outer loop
      vertex -82.0873 3.58501 66.5
      vertex -81.7497 7.1602 68.5
      vertex -81.7497 7.1602 66.5
    endloop
  endfacet
  facet normal -0.99557 0.0940233 0
    outer loop
      vertex -81.7497 7.1602 68.5
      vertex -82.0873 3.58501 66.5
      vertex -82.0873 3.58501 68.5
    endloop
  endfacet
  facet normal 0 0 1
    outer loop
      vertex 57.5 35 68.5
      vertex 82.2 0 68.5
      vertex 82.0873 3.58501 68.5
    endloop
  endfacet
  facet normal 0 0 1
    outer loop
      vertex 57.5 35 68.5
      vertex 82.0873 3.58501 68.5
      vertex 81.7497 7.1602 68.5
    endloop
  endfacet
  facet normal 0 0 1
    outer loop
      vertex 57.5 -35 68.5
      vertex 82.2 0 68.5
      vertex 57.5 35 68.5
    endloop
  endfacet
  facet normal 0 0 1
    outer loop
      vertex 57.5 35 68.5
      vertex 81.7497 7.1602 68.5
      vertex 81.188 10.7158 68.5
    endloop
  endfacet
  facet normal 0 0 1
    outer loop
      vertex 82.2 0 68.5
      vertex 57.5 -35 68.5
      vertex 82.0873 -3.58501 68.5
    endloop
  endfacet
  facet normal 0 0 1
    outer loop
      vertex 57.5 35 68.5
      vertex 81.188 10.7158 68.5
      vertex 80.4037 14.242 68.5
    endloop
  endfacet
  facet normal 0 0 1
    outer loop
      vertex 82.0873 -3.58501 68.5
      vertex 57.5 -35 68.5
      vertex 81.7497 -7.1602 68.5
    endloop
  endfacet
  facet normal 0 0 1
    outer loop
      vertex 57.5 35 68.5
      vertex 80.4037 14.242 68.5
      vertex 79.3991 17.7291 68.5
    endloop
  endfacet
  facet normal 0 0 1
    outer loop
      vertex 81.7497 -7.1602 68.5
      vertex 57.5 -35 68.5
      vertex 81.188 -10.7158 68.5
    endloop
  endfacet
  facet normal 0 0 1
    outer loop
      vertex 57.5 35 68.5
      vertex 79.3991 17.7291 68.5
      vertex 78.1768 21.1677 68.5
    endloop
  endfacet
  facet normal 0 0 1
    outer loop
      vertex 81.188 -10.7158 68.5
      vertex 57.5 -35 68.5
      vertex 80.4037 -14.242 68.5
    endloop
  endfacet
  facet normal 0 0 1
    outer loop
      vertex 57.5 35 68.5
      vertex 78.1768 21.1677 68.5
      vertex 76.7403 24.5482 68.5
    endloop
  endfacet
  facet normal 0 0 1
    outer loop
      vertex 80.4037 -14.242 68.5
      vertex 57.5 -35 68.5
      vertex 79.3991 -17.7291 68.5
    endloop
  endfacet
  facet normal 0 0 1
    outer loop
      vertex 57.5 35 68.5
      vertex 76.7403 24.5482 68.5
      vertex 75.0934 27.8615 68.5
    endloop
  endfacet
  facet normal 0 0 1
    outer loop
      vertex 79.3991 -17.7291 68.5
      vertex 57.5 -35 68.5
      vertex 78.1768 -21.1677 68.5
    endloop
  endfacet
  facet normal 0 0 1
    outer loop
      vertex 57.5 35 68.5
      vertex 75.0934 27.8615 68.5
      vertex 73.2407 31.0983 68.5
    endloop
  endfacet
  facet normal 0 0 1
    outer loop
      vertex 78.1768 -21.1677 68.5
      vertex 57.5 -35 68.5
      vertex 76.7403 -24.5482 68.5
    endloop
  endfacet
  facet normal 0 0 1
    outer loop
      vertex 57.5 35 68.5
      vertex 73.2407 31.0983 68.5
      vertex 71.1873 34.25 68.5
    endloop
  endfacet
  facet normal 0 0 1
    outer loop
      vertex 76.7403 -24.5482 68.5
      vertex 57.5 -35 68.5
      vertex 75.0934 -27.8615 68.5
    endloop
  endfacet
  facet normal -0 0 1
    outer loop
      vertex 57.5 35 68.5
      vertex 71.1873 34.25 68.5
      vertex 68.9387 37.3078 68.5
    endloop
  endfacet
  facet normal 0 0 1
    outer loop
      vertex 75.0934 -27.8615 68.5
      vertex 57.5 -35 68.5
      vertex 73.2407 -31.0983 68.5
    endloop
  endfacet
  facet normal 0 0 1
    outer loop
      vertex 57.5 35 68.5
      vertex 68.9387 37.3078 68.5
      vertex 66.5012 40.2633 68.5
    endloop
  endfacet
  facet normal 0 0 1
    outer loop
      vertex 73.2407 -31.0983 68.5
      vertex 57.5 -35 68.5
      vertex 71.1873 -34.25 68.5
    endloop
  endfacet
  facet normal 0 0 1
    outer loop
      vertex 57.5 35 68.5
      vertex 66.5012 40.2633 68.5
      vertex 63.8814 43.1084 68.5
    endloop
  endfacet
  facet normal 0 0 1
    outer loop
      vertex 71.1873 -34.25 68.5
      vertex 57.5 -35 68.5
      vertex 68.9387 -37.3078 68.5
    endloop
  endfacet
  facet normal 0 0 1
    outer loop
      vertex 57.5 35 68.5
      vertex 63.8814 43.1084 68.5
      vertex 61.0865 45.8354 68.5
    endloop
  endfacet
  facet normal 0 0 1
    outer loop
      vertex 68.9387 -37.3078 68.5
      vertex 57.5 -35 68.5
      vertex 66.5012 -40.2633 68.5
    endloop
  endfacet
  facet normal 0 0 1
    outer loop
      vertex 57.5 35 68.5
      vertex 61.0865 45.8354 68.5
      vertex 58.1242 48.4368 68.5
    endloop
  endfacet
  facet normal 0 0 1
    outer loop
      vertex 66.5012 -40.2633 68.5
      vertex 57.5 -35 68.5
      vertex 63.8814 -43.1084 68.5
    endloop
  endfacet
  facet normal 0 0 1
    outer loop
      vertex 63.8814 -43.1084 68.5
      vertex 57.5 -35 68.5
      vertex 61.0865 -45.8354 68.5
    endloop
  endfacet
  facet normal 0 0 1
    outer loop
      vertex 55.0025 50.9054 68.5
      vertex 57.5 35 68.5
      vertex 58.1242 48.4368 68.5
    endloop
  endfacet
  facet normal 0 0 1
    outer loop
      vertex 51.7301 53.2345 68.5
      vertex 57.5 35 68.5
      vertex 55.0025 50.9054 68.5
    endloop
  endfacet
  facet normal 0 0 1
    outer loop
      vertex 48.3159 55.4177 68.5
      vertex 57.5 35 68.5
      vertex 51.7301 53.2345 68.5
    endloop
  endfacet
  facet normal 0 0 1
    outer loop
      vertex 44.7693 57.4489 68.5
      vertex 57.5 35 68.5
      vertex 48.3159 55.4177 68.5
    endloop
  endfacet
  facet normal 0 0 1
    outer loop
      vertex 41.1 59.3227 68.5
      vertex 57.5 35 68.5
      vertex 44.7693 57.4489 68.5
    endloop
  endfacet
  facet normal 0 0 1
    outer loop
      vertex 37.318 61.0339 68.5
      vertex 57.5 35 68.5
      vertex 41.1 59.3227 68.5
    endloop
  endfacet
  facet normal 0 0 1
    outer loop
      vertex 33.4338 62.5779 68.5
      vertex 57.5 35 68.5
      vertex 37.318 61.0339 68.5
    endloop
  endfacet
  facet normal 0 0 1
    outer loop
      vertex 29.4578 63.9503 68.5
      vertex 57.5 35 68.5
      vertex 33.4338 62.5779 68.5
    endloop
  endfacet
  facet normal 0 0 1
    outer loop
      vertex 25.4012 65.1474 68.5
      vertex 57.5 35 68.5
      vertex 29.4578 63.9503 68.5
    endloop
  endfacet
  facet normal 0 0 1
    outer loop
      vertex 21.2749 66.1659 68.5
      vertex 57.5 35 68.5
      vertex 25.4012 65.1474 68.5
    endloop
  endfacet
  facet normal 0 0 1
    outer loop
      vertex 17.0903 67.0031 68.5
      vertex 57.5 35 68.5
      vertex 21.2749 66.1659 68.5
    endloop
  endfacet
  facet normal 0 0 1
    outer loop
      vertex 12.8589 67.6566 68.5
      vertex 57.5 35 68.5
      vertex 17.0903 67.0031 68.5
    endloop
  endfacet
  facet normal 0 0 1
    outer loop
      vertex 8.59224 68.1247 68.5
      vertex 57.5 35 68.5
      vertex 12.8589 67.6566 68.5
    endloop
  endfacet
  facet normal 0 0 1
    outer loop
      vertex 4.30202 68.4061 68.5
      vertex 57.5 35 68.5
      vertex 8.59224 68.1247 68.5
    endloop
  endfacet
  facet normal 0 0 1
    outer loop
      vertex 0 68.5 68.5
      vertex 57.5 35 68.5
      vertex 4.30202 68.4061 68.5
    endloop
  endfacet
  facet normal 0 0 1
    outer loop
      vertex -57.5 35 68.5
      vertex 0 68.5 68.5
      vertex -4.30202 68.4061 68.5
    endloop
  endfacet
  facet normal 0 0 1
    outer loop
      vertex -57.5 35 68.5
      vertex -4.30202 68.4061 68.5
      vertex -8.59224 68.1247 68.5
    endloop
  endfacet
  facet normal 0 0 1
    outer loop
      vertex -57.5 35 68.5
      vertex -8.59224 68.1247 68.5
      vertex -12.8589 67.6566 68.5
    endloop
  endfacet
  facet normal 0 0 1
    outer loop
      vertex -57.5 35 68.5
      vertex -12.8589 67.6566 68.5
      vertex -17.0903 67.0031 68.5
    endloop
  endfacet
  facet normal 0 0 1
    outer loop
      vertex -57.5 35 68.5
      vertex -17.0903 67.0031 68.5
      vertex -21.2749 66.1659 68.5
    endloop
  endfacet
  facet normal 0 0 1
    outer loop
      vertex -57.5 35 68.5
      vertex -21.2749 66.1659 68.5
      vertex -25.4012 65.1474 68.5
    endloop
  endfacet
  facet normal 0 0 1
    outer loop
      vertex -57.5 35 68.5
      vertex -25.4012 65.1474 68.5
      vertex -29.4578 63.9503 68.5
    endloop
  endfacet
  facet normal 0 0 1
    outer loop
      vertex -57.5 35 68.5
      vertex -29.4578 63.9503 68.5
      vertex -33.4338 62.5779 68.5
    endloop
  endfacet
  facet normal 0 0 1
    outer loop
      vertex -57.5 35 68.5
      vertex -33.4338 62.5779 68.5
      vertex -37.318 61.0339 68.5
    endloop
  endfacet
  facet normal 0 0 1
    outer loop
      vertex -57.5 35 68.5
      vertex -37.318 61.0339 68.5
      vertex -41.1 59.3227 68.5
    endloop
  endfacet
  facet normal 0 0 1
    outer loop
      vertex -57.5 35 68.5
      vertex -41.1 59.3227 68.5
      vertex -44.7693 57.4489 68.5
    endloop
  endfacet
  facet normal 0 0 1
    outer loop
      vertex -57.5 35 68.5
      vertex -44.7693 57.4489 68.5
      vertex -48.3159 55.4177 68.5
    endloop
  endfacet
  facet normal 0 0 1
    outer loop
      vertex -57.5 35 68.5
      vertex -48.3159 55.4177 68.5
      vertex -51.7301 53.2345 68.5
    endloop
  endfacet
  facet normal 0 0 1
    outer loop
      vertex -57.5 35 68.5
      vertex -51.7301 53.2345 68.5
      vertex -55.0025 50.9054 68.5
    endloop
  endfacet
  facet normal 0 0 1
    outer loop
      vertex 0 68.5 68.5
      vertex -57.5 35 68.5
      vertex 57.5 35 68.5
    endloop
  endfacet
  facet normal -0 0 1
    outer loop
      vertex -61.0865 45.8354 68.5
      vertex -57.5 35 68.5
      vertex -58.1242 48.4368 68.5
    endloop
  endfacet
  facet normal -0 0 1
    outer loop
      vertex -58.1242 48.4368 68.5
      vertex -57.5 35 68.5
      vertex -55.0025 50.9054 68.5
    endloop
  endfacet
  facet normal 0 0 1
    outer loop
      vertex 61.0865 -45.8354 68.5
      vertex 57.5 -35 68.5
      vertex 58.1242 -48.4368 68.5
    endloop
  endfacet
  facet normal 0 0 1
    outer loop
      vertex 57.5 -35 68.5
      vertex 55.0025 -50.9054 68.5
      vertex 58.1242 -48.4368 68.5
    endloop
  endfacet
  facet normal 0 0 1
    outer loop
      vertex 57.5 -35 68.5
      vertex 51.7301 -53.2345 68.5
      vertex 55.0025 -50.9054 68.5
    endloop
  endfacet
  facet normal 0 0 1
    outer loop
      vertex 57.5 -35 68.5
      vertex 48.3159 -55.4177 68.5
      vertex 51.7301 -53.2345 68.5
    endloop
  endfacet
  facet normal 0 0 1
    outer loop
      vertex 57.5 -35 68.5
      vertex 44.7693 -57.4489 68.5
      vertex 48.3159 -55.4177 68.5
    endloop
  endfacet
  facet normal 0 0 1
    outer loop
      vertex 57.5 -35 68.5
      vertex 41.1 -59.3227 68.5
      vertex 44.7693 -57.4489 68.5
    endloop
  endfacet
  facet normal 0 0 1
    outer loop
      vertex 57.5 -35 68.5
      vertex 37.318 -61.0339 68.5
      vertex 41.1 -59.3227 68.5
    endloop
  endfacet
  facet normal 0 0 1
    outer loop
      vertex 57.5 -35 68.5
      vertex 33.4338 -62.5779 68.5
      vertex 37.318 -61.0339 68.5
    endloop
  endfacet
  facet normal 0 0 1
    outer loop
      vertex 57.5 -35 68.5
      vertex 29.4578 -63.9503 68.5
      vertex 33.4338 -62.5779 68.5
    endloop
  endfacet
  facet normal 0 0 1
    outer loop
      vertex 57.5 -35 68.5
      vertex 25.4012 -65.1474 68.5
      vertex 29.4578 -63.9503 68.5
    endloop
  endfacet
  facet normal 0 0 1
    outer loop
      vertex 57.5 -35 68.5
      vertex 21.2749 -66.1659 68.5
      vertex 25.4012 -65.1474 68.5
    endloop
  endfacet
  facet normal 0 0 1
    outer loop
      vertex 57.5 -35 68.5
      vertex 17.0903 -67.0031 68.5
      vertex 21.2749 -66.1659 68.5
    endloop
  endfacet
  facet normal 0 0 1
    outer loop
      vertex 57.5 -35 68.5
      vertex 12.8589 -67.6566 68.5
      vertex 17.0903 -67.0031 68.5
    endloop
  endfacet
  facet normal 0 0 1
    outer loop
      vertex 57.5 -35 68.5
      vertex 8.59224 -68.1247 68.5
      vertex 12.8589 -67.6566 68.5
    endloop
  endfacet
  facet normal 0 0 1
    outer loop
      vertex 57.5 -35 68.5
      vertex 4.30202 -68.4061 68.5
      vertex 8.59224 -68.1247 68.5
    endloop
  endfacet
  facet normal 0 0 1
    outer loop
      vertex 57.5 -35 68.5
      vertex 0 -68.5 68.5
      vertex 4.30202 -68.4061 68.5
    endloop
  endfacet
  facet normal -0 0 1
    outer loop
      vertex -57.5 -35 68.5
      vertex 0 -68.5 68.5
      vertex 57.5 -35 68.5
    endloop
  endfacet
  facet normal 0 0 1
    outer loop
      vertex 0 -68.5 68.5
      vertex -57.5 -35 68.5
      vertex -4.30202 -68.4061 68.5
    endloop
  endfacet
  facet normal 0 0 1
    outer loop
      vertex -4.30202 -68.4061 68.5
      vertex -57.5 -35 68.5
      vertex -8.59224 -68.1247 68.5
    endloop
  endfacet
  facet normal 0 0 1
    outer loop
      vertex -8.59224 -68.1247 68.5
      vertex -57.5 -35 68.5
      vertex -12.8589 -67.6566 68.5
    endloop
  endfacet
  facet normal 0 0 1
    outer loop
      vertex -12.8589 -67.6566 68.5
      vertex -57.5 -35 68.5
      vertex -17.0903 -67.0031 68.5
    endloop
  endfacet
  facet normal 0 0 1
    outer loop
      vertex -17.0903 -67.0031 68.5
      vertex -57.5 -35 68.5
      vertex -21.2749 -66.1659 68.5
    endloop
  endfacet
  facet normal 0 0 1
    outer loop
      vertex -21.2749 -66.1659 68.5
      vertex -57.5 -35 68.5
      vertex -25.4012 -65.1474 68.5
    endloop
  endfacet
  facet normal 0 0 1
    outer loop
      vertex -25.4012 -65.1474 68.5
      vertex -57.5 -35 68.5
      vertex -29.4578 -63.9503 68.5
    endloop
  endfacet
  facet normal 0 0 1
    outer loop
      vertex -29.4578 -63.9503 68.5
      vertex -57.5 -35 68.5
      vertex -33.4338 -62.5779 68.5
    endloop
  endfacet
  facet normal 0 0 1
    outer loop
      vertex -33.4338 -62.5779 68.5
      vertex -57.5 -35 68.5
      vertex -37.318 -61.0339 68.5
    endloop
  endfacet
  facet normal 0 0 1
    outer loop
      vertex -37.318 -61.0339 68.5
      vertex -57.5 -35 68.5
      vertex -41.1 -59.3227 68.5
    endloop
  endfacet
  facet normal 0 0 1
    outer loop
      vertex -41.1 -59.3227 68.5
      vertex -57.5 -35 68.5
      vertex -44.7693 -57.4489 68.5
    endloop
  endfacet
  facet normal 0 0 1
    outer loop
      vertex -44.7693 -57.4489 68.5
      vertex -57.5 -35 68.5
      vertex -48.3159 -55.4177 68.5
    endloop
  endfacet
  facet normal 0 0 1
    outer loop
      vertex -48.3159 -55.4177 68.5
      vertex -57.5 -35 68.5
      vertex -51.7301 -53.2345 68.5
    endloop
  endfacet
  facet normal 0 0 1
    outer loop
      vertex -51.7301 -53.2345 68.5
      vertex -57.5 -35 68.5
      vertex -55.0025 -50.9054 68.5
    endloop
  endfacet
  facet normal 0 0 1
    outer loop
      vertex -57.5 -35 68.5
      vertex -58.1242 -48.4368 68.5
      vertex -55.0025 -50.9054 68.5
    endloop
  endfacet
  facet normal -0 0 1
    outer loop
      vertex -63.8814 43.1084 68.5
      vertex -57.5 35 68.5
      vertex -61.0865 45.8354 68.5
    endloop
  endfacet
  facet normal -0 0 1
    outer loop
      vertex -66.5012 40.2633 68.5
      vertex -57.5 35 68.5
      vertex -63.8814 43.1084 68.5
    endloop
  endfacet
  facet normal 0 0 1
    outer loop
      vertex -57.5 -35 68.5
      vertex -61.0865 -45.8354 68.5
      vertex -58.1242 -48.4368 68.5
    endloop
  endfacet
  facet normal -0 0 1
    outer loop
      vertex -68.9387 37.3078 68.5
      vertex -57.5 35 68.5
      vertex -66.5012 40.2633 68.5
    endloop
  endfacet
  facet normal 0 0 1
    outer loop
      vertex -57.5 -35 68.5
      vertex -63.8814 -43.1084 68.5
      vertex -61.0865 -45.8354 68.5
    endloop
  endfacet
  facet normal 0 0 1
    outer loop
      vertex -71.1873 34.25 68.5
      vertex -57.5 35 68.5
      vertex -68.9387 37.3078 68.5
    endloop
  endfacet
  facet normal 0 0 1
    outer loop
      vertex -57.5 -35 68.5
      vertex -66.5012 -40.2633 68.5
      vertex -63.8814 -43.1084 68.5
    endloop
  endfacet
  facet normal 0 0 1
    outer loop
      vertex -73.2407 31.0983 68.5
      vertex -57.5 35 68.5
      vertex -71.1873 34.25 68.5
    endloop
  endfacet
  facet normal 0 0 1
    outer loop
      vertex -57.5 -35 68.5
      vertex -68.9387 -37.3078 68.5
      vertex -66.5012 -40.2633 68.5
    endloop
  endfacet
  facet normal 0 0 1
    outer loop
      vertex -75.0934 27.8615 68.5
      vertex -57.5 35 68.5
      vertex -73.2407 31.0983 68.5
    endloop
  endfacet
  facet normal 0 0 1
    outer loop
      vertex -57.5 -35 68.5
      vertex -71.1873 -34.25 68.5
      vertex -68.9387 -37.3078 68.5
    endloop
  endfacet
  facet normal 0 0 1
    outer loop
      vertex -76.7403 24.5482 68.5
      vertex -57.5 35 68.5
      vertex -75.0934 27.8615 68.5
    endloop
  endfacet
  facet normal 0 0 1
    outer loop
      vertex -57.5 -35 68.5
      vertex -73.2407 -31.0983 68.5
      vertex -71.1873 -34.25 68.5
    endloop
  endfacet
  facet normal 0 0 1
    outer loop
      vertex -78.1768 21.1677 68.5
      vertex -57.5 35 68.5
      vertex -76.7403 24.5482 68.5
    endloop
  endfacet
  facet normal 0 0 1
    outer loop
      vertex -57.5 -35 68.5
      vertex -75.0934 -27.8615 68.5
      vertex -73.2407 -31.0983 68.5
    endloop
  endfacet
  facet normal 0 0 1
    outer loop
      vertex -79.3991 17.7291 68.5
      vertex -57.5 35 68.5
      vertex -78.1768 21.1677 68.5
    endloop
  endfacet
  facet normal 0 0 1
    outer loop
      vertex -57.5 -35 68.5
      vertex -76.7403 -24.5482 68.5
      vertex -75.0934 -27.8615 68.5
    endloop
  endfacet
  facet normal 0 0 1
    outer loop
      vertex -80.4037 14.242 68.5
      vertex -57.5 35 68.5
      vertex -79.3991 17.7291 68.5
    endloop
  endfacet
  facet normal 0 0 1
    outer loop
      vertex -57.5 -35 68.5
      vertex -78.1768 -21.1677 68.5
      vertex -76.7403 -24.5482 68.5
    endloop
  endfacet
  facet normal 0 0 1
    outer loop
      vertex -81.188 10.7158 68.5
      vertex -57.5 35 68.5
      vertex -80.4037 14.242 68.5
    endloop
  endfacet
  facet normal 0 0 1
    outer loop
      vertex -57.5 -35 68.5
      vertex -79.3991 -17.7291 68.5
      vertex -78.1768 -21.1677 68.5
    endloop
  endfacet
  facet normal 0 0 1
    outer loop
      vertex -81.7497 7.1602 68.5
      vertex -57.5 35 68.5
      vertex -81.188 10.7158 68.5
    endloop
  endfacet
  facet normal 0 0 1
    outer loop
      vertex -57.5 -35 68.5
      vertex -80.4037 -14.242 68.5
      vertex -79.3991 -17.7291 68.5
    endloop
  endfacet
  facet normal 0 0 1
    outer loop
      vertex -82.0873 3.58501 68.5
      vertex -57.5 35 68.5
      vertex -81.7497 7.1602 68.5
    endloop
  endfacet
  facet normal 0 0 1
    outer loop
      vertex -57.5 -35 68.5
      vertex -81.188 -10.7158 68.5
      vertex -80.4037 -14.242 68.5
    endloop
  endfacet
  facet normal 0 0 1
    outer loop
      vertex -82.2 0 68.5
      vertex -57.5 35 68.5
      vertex -82.0873 3.58501 68.5
    endloop
  endfacet
  facet normal 0 0 1
    outer loop
      vertex -57.5 -35 68.5
      vertex -81.7497 -7.1602 68.5
      vertex -81.188 -10.7158 68.5
    endloop
  endfacet
  facet normal 0 0 1
    outer loop
      vertex -57.5 35 68.5
      vertex -82.2 0 68.5
      vertex -57.5 -35 68.5
    endloop
  endfacet
  facet normal 0 0 1
    outer loop
      vertex -57.5 -35 68.5
      vertex -82.0873 -3.58501 68.5
      vertex -81.7497 -7.1602 68.5
    endloop
  endfacet
  facet normal 0 0 1
    outer loop
      vertex -57.5 -35 68.5
      vertex -82.2 0 68.5
      vertex -82.0873 -3.58501 68.5
    endloop
  endfacet
  facet normal -0.496993 0.867755 0
    outer loop
      vertex -44.7693 57.4489 66.5
      vertex -48.3159 55.4177 68.5
      vertex -44.7693 57.4489 68.5
    endloop
  endfacet
  facet normal -0.496993 0.867755 0
    outer loop
      vertex -48.3159 55.4177 68.5
      vertex -44.7693 57.4489 66.5
      vertex -48.3159 55.4177 66.5
    endloop
  endfacet
  facet normal -0.239651 0.970859 0
    outer loop
      vertex -21.2749 66.1659 66.5
      vertex -25.4012 65.1474 68.5
      vertex -21.2749 66.1659 68.5
    endloop
  endfacet
  facet normal -0.239651 0.970859 0
    outer loop
      vertex -25.4012 65.1474 68.5
      vertex -21.2749 66.1659 66.5
      vertex -25.4012 65.1474 66.5
    endloop
  endfacet
  facet normal -0.109057 0.994036 0
    outer loop
      vertex -8.59224 68.1247 66.5
      vertex -12.8589 67.6566 68.5
      vertex -8.59224 68.1247 68.5
    endloop
  endfacet
  facet normal -0.109057 0.994036 0
    outer loop
      vertex -12.8589 67.6566 68.5
      vertex -8.59224 68.1247 66.5
      vertex -12.8589 67.6566 66.5
    endloop
  endfacet
  facet normal -0.0218171 0.999762 0
    outer loop
      vertex 0 68.5 66.5
      vertex -4.30202 68.4061 68.5
      vertex 0 68.5 68.5
    endloop
  endfacet
  facet normal -0.0218171 0.999762 0
    outer loop
      vertex -4.30202 68.4061 68.5
      vertex 0 68.5 66.5
      vertex -4.30202 68.4061 66.5
    endloop
  endfacet
  facet normal 0.999507 -0.0314064 0
    outer loop
      vertex 82.0873 -3.58501 68.5
      vertex 82.2 0 66.5
      vertex 82.2 0 68.5
    endloop
  endfacet
  facet normal 0.999507 -0.0314064 0
    outer loop
      vertex 82.2 0 66.5
      vertex 82.0873 -3.58501 68.5
      vertex 82.0873 -3.58501 66.5
    endloop
  endfacet
  facet normal 0.0218171 -0.999762 0
    outer loop
      vertex 0 -68.5 66.5
      vertex 4.30202 -68.4061 68.5
      vertex 0 -68.5 68.5
    endloop
  endfacet
  facet normal 0.0218171 -0.999762 0
    outer loop
      vertex 4.30202 -68.4061 68.5
      vertex 0 -68.5 66.5
      vertex 4.30202 -68.4061 66.5
    endloop
  endfacet
  facet normal 0.196179 -0.980568 0
    outer loop
      vertex 17.0903 -67.0031 66.5
      vertex 21.2749 -66.1659 68.5
      vertex 17.0903 -67.0031 68.5
    endloop
  endfacet
  facet normal 0.196179 -0.980568 0
    outer loop
      vertex 21.2749 -66.1659 68.5
      vertex 17.0903 -67.0031 66.5
      vertex 21.2749 -66.1659 66.5
    endloop
  endfacet
  facet normal 0.283032 -0.959111 0
    outer loop
      vertex 25.4012 -65.1474 66.5
      vertex 29.4578 -63.9503 68.5
      vertex 25.4012 -65.1474 68.5
    endloop
  endfacet
  facet normal 0.283032 -0.959111 0
    outer loop
      vertex 29.4578 -63.9503 68.5
      vertex 25.4012 -65.1474 66.5
      vertex 29.4578 -63.9503 66.5
    endloop
  endfacet
  facet normal 0.239651 -0.970859 0
    outer loop
      vertex 21.2749 -66.1659 66.5
      vertex 25.4012 -65.1474 68.5
      vertex 21.2749 -66.1659 68.5
    endloop
  endfacet
  facet normal 0.239651 -0.970859 0
    outer loop
      vertex 25.4012 -65.1474 68.5
      vertex 21.2749 -66.1659 66.5
      vertex 25.4012 -65.1474 66.5
    endloop
  endfacet
  facet normal 0.620287 -0.784375 0
    outer loop
      vertex 55.0025 -50.9054 66.5
      vertex 58.1242 -48.4368 68.5
      vertex 55.0025 -50.9054 68.5
    endloop
  endfacet
  facet normal 0.620287 -0.784375 0
    outer loop
      vertex 58.1242 -48.4368 68.5
      vertex 55.0025 -50.9054 66.5
      vertex 58.1242 -48.4368 66.5
    endloop
  endfacet
  facet normal 0.538719 -0.842486 0
    outer loop
      vertex 48.3159 -55.4177 66.5
      vertex 51.7301 -53.2345 68.5
      vertex 48.3159 -55.4177 68.5
    endloop
  endfacet
  facet normal 0.538719 -0.842486 0
    outer loop
      vertex 51.7301 -53.2345 68.5
      vertex 48.3159 -55.4177 66.5
      vertex 51.7301 -53.2345 66.5
    endloop
  endfacet
  facet normal 0.579861 -0.814716 0
    outer loop
      vertex 51.7301 -53.2345 66.5
      vertex 55.0025 -50.9054 68.5
      vertex 51.7301 -53.2345 68.5
    endloop
  endfacet
  facet normal 0.579861 -0.814716 0
    outer loop
      vertex 55.0025 -50.9054 68.5
      vertex 51.7301 -53.2345 66.5
      vertex 55.0025 -50.9054 66.5
    endloop
  endfacet
  facet normal 0.369371 -0.929282 0
    outer loop
      vertex 33.4338 -62.5779 66.5
      vertex 37.318 -61.0339 68.5
      vertex 33.4338 -62.5779 68.5
    endloop
  endfacet
  facet normal 0.369371 -0.929282 0
    outer loop
      vertex 37.318 -61.0339 68.5
      vertex 33.4338 -62.5779 66.5
      vertex 37.318 -61.0339 66.5
    endloop
  endfacet
  facet normal 0.454797 -0.890595 0
    outer loop
      vertex 41.1 -59.3227 66.5
      vertex 44.7693 -57.4489 68.5
      vertex 41.1 -59.3227 68.5
    endloop
  endfacet
  facet normal 0.454797 -0.890595 0
    outer loop
      vertex 44.7693 -57.4489 68.5
      vertex 41.1 -59.3227 66.5
      vertex 44.7693 -57.4489 66.5
    endloop
  endfacet
  facet normal 0.412231 -0.91108 0
    outer loop
      vertex 37.318 -61.0339 66.5
      vertex 41.1 -59.3227 68.5
      vertex 37.318 -61.0339 68.5
    endloop
  endfacet
  facet normal 0.412231 -0.91108 0
    outer loop
      vertex 41.1 -59.3227 68.5
      vertex 37.318 -61.0339 66.5
      vertex 41.1 -59.3227 66.5
    endloop
  endfacet
  facet normal 0.659844 -0.751402 0
    outer loop
      vertex 58.1242 -48.4368 66.5
      vertex 61.0865 -45.8354 68.5
      vertex 58.1242 -48.4368 68.5
    endloop
  endfacet
  facet normal 0.659844 -0.751402 0
    outer loop
      vertex 61.0865 -45.8354 68.5
      vertex 58.1242 -48.4368 66.5
      vertex 61.0865 -45.8354 66.5
    endloop
  endfacet
  facet normal 0.73564 -0.677373 0
    outer loop
      vertex 63.8814 -43.1084 68.5
      vertex 66.5012 -40.2633 66.5
      vertex 66.5012 -40.2633 68.5
    endloop
  endfacet
  facet normal 0.73564 -0.677373 0
    outer loop
      vertex 66.5012 -40.2633 66.5
      vertex 63.8814 -43.1084 68.5
      vertex 63.8814 -43.1084 66.5
    endloop
  endfacet
  facet normal 0.867891 -0.496755 0
    outer loop
      vertex 73.2407 -31.0983 68.5
      vertex 75.0934 -27.8615 66.5
      vertex 75.0934 -27.8615 68.5
    endloop
  endfacet
  facet normal 0.867891 -0.496755 0
    outer loop
      vertex 75.0934 -27.8615 66.5
      vertex 73.2407 -31.0983 68.5
      vertex 73.2407 -31.0983 66.5
    endloop
  endfacet
  facet normal 0.805626 -0.592425 0
    outer loop
      vertex 68.9387 -37.3078 68.5
      vertex 71.1873 -34.25 66.5
      vertex 71.1873 -34.25 68.5
    endloop
  endfacet
  facet normal 0.805626 -0.592425 0
    outer loop
      vertex 71.1873 -34.25 66.5
      vertex 68.9387 -37.3078 68.5
      vertex 68.9387 -37.3078 66.5
    endloop
  endfacet
  facet normal 0.92035 -0.391097 0
    outer loop
      vertex 76.7403 -24.5482 68.5
      vertex 78.1768 -21.1677 66.5
      vertex 78.1768 -21.1677 68.5
    endloop
  endfacet
  facet normal 0.92035 -0.391097 0
    outer loop
      vertex 78.1768 -21.1677 66.5
      vertex 76.7403 -24.5482 68.5
      vertex 76.7403 -24.5482 66.5
    endloop
  endfacet
  facet normal 0.960917 -0.276835 0
    outer loop
      vertex 79.3991 -17.7291 68.5
      vertex 80.4037 -14.242 66.5
      vertex 80.4037 -14.242 68.5
    endloop
  endfacet
  facet normal 0.960917 -0.276835 0
    outer loop
      vertex 80.4037 -14.242 66.5
      vertex 79.3991 -17.7291 68.5
      vertex 79.3991 -17.7291 66.5
    endloop
  endfacet
  facet normal -0.579861 -0.814716 0
    outer loop
      vertex -55.0025 -50.9054 66.5
      vertex -51.7301 -53.2345 68.5
      vertex -55.0025 -50.9054 68.5
    endloop
  endfacet
  facet normal -0.579861 -0.814716 -0
    outer loop
      vertex -51.7301 -53.2345 68.5
      vertex -55.0025 -50.9054 66.5
      vertex -51.7301 -53.2345 66.5
    endloop
  endfacet
  facet normal -0.412231 -0.91108 0
    outer loop
      vertex -41.1 -59.3227 66.5
      vertex -37.318 -61.0339 68.5
      vertex -41.1 -59.3227 68.5
    endloop
  endfacet
  facet normal -0.412231 -0.91108 -0
    outer loop
      vertex -37.318 -61.0339 68.5
      vertex -41.1 -59.3227 66.5
      vertex -37.318 -61.0339 66.5
    endloop
  endfacet
  facet normal -0.496993 -0.867755 0
    outer loop
      vertex -48.3159 -55.4177 66.5
      vertex -44.7693 -57.4489 68.5
      vertex -48.3159 -55.4177 68.5
    endloop
  endfacet
  facet normal -0.496993 -0.867755 -0
    outer loop
      vertex -44.7693 -57.4489 68.5
      vertex -48.3159 -55.4177 66.5
      vertex -44.7693 -57.4489 66.5
    endloop
  endfacet
  facet normal -0.326286 -0.945271 0
    outer loop
      vertex -33.4338 -62.5779 66.5
      vertex -29.4578 -63.9503 68.5
      vertex -33.4338 -62.5779 68.5
    endloop
  endfacet
  facet normal -0.326286 -0.945271 -0
    outer loop
      vertex -29.4578 -63.9503 68.5
      vertex -33.4338 -62.5779 66.5
      vertex -29.4578 -63.9503 66.5
    endloop
  endfacet
  facet normal -0.239651 -0.970859 0
    outer loop
      vertex -25.4012 -65.1474 66.5
      vertex -21.2749 -66.1659 68.5
      vertex -25.4012 -65.1474 68.5
    endloop
  endfacet
  facet normal -0.239651 -0.970859 -0
    outer loop
      vertex -21.2749 -66.1659 68.5
      vertex -25.4012 -65.1474 66.5
      vertex -21.2749 -66.1659 66.5
    endloop
  endfacet
  facet normal -0.0654439 -0.997856 0
    outer loop
      vertex -8.59224 -68.1247 66.5
      vertex -4.30202 -68.4061 68.5
      vertex -8.59224 -68.1247 68.5
    endloop
  endfacet
  facet normal -0.0654439 -0.997856 -0
    outer loop
      vertex -4.30202 -68.4061 68.5
      vertex -8.59224 -68.1247 66.5
      vertex -4.30202 -68.4061 66.5
    endloop
  endfacet
  facet normal -0.895479 -0.445103 0
    outer loop
      vertex -75.0934 -27.8615 66.5
      vertex -76.7403 -24.5482 68.5
      vertex -76.7403 -24.5482 66.5
    endloop
  endfacet
  facet normal -0.895479 -0.445103 0
    outer loop
      vertex -76.7403 -24.5482 68.5
      vertex -75.0934 -27.8615 66.5
      vertex -75.0934 -27.8615 68.5
    endloop
  endfacet
  facet normal -0.837851 -0.5459 0
    outer loop
      vertex -71.1873 -34.25 66.5
      vertex -73.2407 -31.0983 68.5
      vertex -73.2407 -31.0983 66.5
    endloop
  endfacet
  facet normal -0.837851 -0.5459 0
    outer loop
      vertex -73.2407 -31.0983 68.5
      vertex -71.1873 -34.25 66.5
      vertex -71.1873 -34.25 68.5
    endloop
  endfacet
  facet normal -0.771473 -0.636262 0
    outer loop
      vertex -66.5012 -40.2633 66.5
      vertex -68.9387 -37.3078 68.5
      vertex -68.9387 -37.3078 66.5
    endloop
  endfacet
  facet normal -0.771473 -0.636262 0
    outer loop
      vertex -68.9387 -37.3078 68.5
      vertex -66.5012 -40.2633 66.5
      vertex -66.5012 -40.2633 68.5
    endloop
  endfacet
  facet normal -0.960917 -0.276835 0
    outer loop
      vertex -79.3991 -17.7291 66.5
      vertex -80.4037 -14.242 68.5
      vertex -80.4037 -14.242 66.5
    endloop
  endfacet
  facet normal -0.960917 -0.276835 0
    outer loop
      vertex -80.4037 -14.242 68.5
      vertex -79.3991 -17.7291 66.5
      vertex -79.3991 -17.7291 68.5
    endloop
  endfacet
  facet normal -0.999507 -0.0314064 0
    outer loop
      vertex -82.0873 -3.58501 66.5
      vertex -82.2 0 68.5
      vertex -82.2 0 66.5
    endloop
  endfacet
  facet normal -0.999507 -0.0314064 0
    outer loop
      vertex -82.2 0 68.5
      vertex -82.0873 -3.58501 66.5
      vertex -82.0873 -3.58501 68.5
    endloop
  endfacet
  facet normal 0.92035 0.391097 0
    outer loop
      vertex 78.1768 21.1677 68.5
      vertex 76.7403 24.5482 66.5
      vertex 76.7403 24.5482 68.5
    endloop
  endfacet
  facet normal 0.92035 0.391097 0
    outer loop
      vertex 76.7403 24.5482 66.5
      vertex 78.1768 21.1677 68.5
      vertex 78.1768 21.1677 66.5
    endloop
  endfacet
  facet normal 0.659844 0.751402 -0
    outer loop
      vertex 61.0865 45.8354 66.5
      vertex 58.1242 48.4368 68.5
      vertex 61.0865 45.8354 68.5
    endloop
  endfacet
  facet normal 0.659844 0.751402 0
    outer loop
      vertex 58.1242 48.4368 68.5
      vertex 61.0865 45.8354 66.5
      vertex 58.1242 48.4368 66.5
    endloop
  endfacet
  facet normal 0.805626 0.592425 0
    outer loop
      vertex 71.1873 34.25 68.5
      vertex 68.9387 37.3078 66.5
      vertex 68.9387 37.3078 68.5
    endloop
  endfacet
  facet normal 0.805626 0.592425 0
    outer loop
      vertex 68.9387 37.3078 66.5
      vertex 71.1873 34.25 68.5
      vertex 71.1873 34.25 66.5
    endloop
  endfacet
  facet normal 0.369371 0.929282 -0
    outer loop
      vertex 37.318 61.0339 66.5
      vertex 33.4338 62.5779 68.5
      vertex 37.318 61.0339 68.5
    endloop
  endfacet
  facet normal 0.369371 0.929282 0
    outer loop
      vertex 33.4338 62.5779 68.5
      vertex 37.318 61.0339 66.5
      vertex 33.4338 62.5779 66.5
    endloop
  endfacet
  facet normal 0.538719 0.842486 -0
    outer loop
      vertex 51.7301 53.2345 66.5
      vertex 48.3159 55.4177 68.5
      vertex 51.7301 53.2345 68.5
    endloop
  endfacet
  facet normal 0.538719 0.842486 0
    outer loop
      vertex 48.3159 55.4177 68.5
      vertex 51.7301 53.2345 66.5
      vertex 48.3159 55.4177 66.5
    endloop
  endfacet
  facet normal -0.659844 0.751402 0
    outer loop
      vertex -58.1242 48.4368 66.5
      vertex -61.0865 45.8354 68.5
      vertex -58.1242 48.4368 68.5
    endloop
  endfacet
  facet normal -0.659844 0.751402 0
    outer loop
      vertex -61.0865 45.8354 68.5
      vertex -58.1242 48.4368 66.5
      vertex -61.0865 45.8354 66.5
    endloop
  endfacet
  facet normal -0.867891 0.496755 0
    outer loop
      vertex -75.0934 27.8615 66.5
      vertex -73.2407 31.0983 68.5
      vertex -73.2407 31.0983 66.5
    endloop
  endfacet
  facet normal -0.867891 0.496755 0
    outer loop
      vertex -73.2407 31.0983 68.5
      vertex -75.0934 27.8615 66.5
      vertex -75.0934 27.8615 68.5
    endloop
  endfacet
  facet normal -0.976149 0.217102 0
    outer loop
      vertex -81.188 10.7158 66.5
      vertex -80.4037 14.242 68.5
      vertex -80.4037 14.242 66.5
    endloop
  endfacet
  facet normal -0.976149 0.217102 0
    outer loop
      vertex -80.4037 14.242 68.5
      vertex -81.188 10.7158 66.5
      vertex -81.188 10.7158 68.5
    endloop
  endfacet
  facet normal -0.369371 0.929282 0
    outer loop
      vertex -33.4338 62.5779 66.5
      vertex -37.318 61.0339 68.5
      vertex -33.4338 62.5779 68.5
    endloop
  endfacet
  facet normal -0.369371 0.929282 0
    outer loop
      vertex -37.318 61.0339 68.5
      vertex -33.4338 62.5779 66.5
      vertex -37.318 61.0339 66.5
    endloop
  endfacet
  facet normal -0.538719 0.842486 0
    outer loop
      vertex -48.3159 55.4177 66.5
      vertex -51.7301 53.2345 68.5
      vertex -48.3159 55.4177 68.5
    endloop
  endfacet
  facet normal -0.538719 0.842486 0
    outer loop
      vertex -51.7301 53.2345 68.5
      vertex -48.3159 55.4177 66.5
      vertex -51.7301 53.2345 66.5
    endloop
  endfacet
  facet normal -0.283032 0.959111 0
    outer loop
      vertex -25.4012 65.1474 66.5
      vertex -29.4578 63.9503 68.5
      vertex -25.4012 65.1474 68.5
    endloop
  endfacet
  facet normal -0.283032 0.959111 0
    outer loop
      vertex -29.4578 63.9503 68.5
      vertex -25.4012 65.1474 66.5
      vertex -29.4578 63.9503 66.5
    endloop
  endfacet
  facet normal -0.196179 0.980568 0
    outer loop
      vertex -17.0903 67.0031 66.5
      vertex -21.2749 66.1659 68.5
      vertex -17.0903 67.0031 68.5
    endloop
  endfacet
  facet normal -0.196179 0.980568 0
    outer loop
      vertex -21.2749 66.1659 68.5
      vertex -17.0903 67.0031 66.5
      vertex -21.2749 66.1659 66.5
    endloop
  endfacet
  facet normal 0.0654439 -0.997856 0
    outer loop
      vertex 4.30202 -68.4061 66.5
      vertex 8.59224 -68.1247 68.5
      vertex 4.30202 -68.4061 68.5
    endloop
  endfacet
  facet normal 0.0654439 -0.997856 0
    outer loop
      vertex 8.59224 -68.1247 68.5
      vertex 4.30202 -68.4061 66.5
      vertex 8.59224 -68.1247 66.5
    endloop
  endfacet
  facet normal 0.152638 -0.988282 0
    outer loop
      vertex 12.8589 -67.6566 66.5
      vertex 17.0903 -67.0031 68.5
      vertex 12.8589 -67.6566 68.5
    endloop
  endfacet
  facet normal 0.152638 -0.988282 0
    outer loop
      vertex 17.0903 -67.0031 68.5
      vertex 12.8589 -67.6566 66.5
      vertex 17.0903 -67.0031 66.5
    endloop
  endfacet
  facet normal 0.69836 -0.715747 0
    outer loop
      vertex 61.0865 -45.8354 66.5
      vertex 63.8814 -43.1084 68.5
      vertex 61.0865 -45.8354 68.5
    endloop
  endfacet
  facet normal 0.69836 -0.715747 0
    outer loop
      vertex 63.8814 -43.1084 68.5
      vertex 61.0865 -45.8354 66.5
      vertex 63.8814 -43.1084 66.5
    endloop
  endfacet
  facet normal 0.771473 -0.636262 0
    outer loop
      vertex 66.5012 -40.2633 68.5
      vertex 68.9387 -37.3078 66.5
      vertex 68.9387 -37.3078 68.5
    endloop
  endfacet
  facet normal 0.771473 -0.636262 0
    outer loop
      vertex 68.9387 -37.3078 66.5
      vertex 66.5012 -40.2633 68.5
      vertex 66.5012 -40.2633 66.5
    endloop
  endfacet
  facet normal 0.895479 -0.445103 0
    outer loop
      vertex 75.0934 -27.8615 68.5
      vertex 76.7403 -24.5482 66.5
      vertex 76.7403 -24.5482 68.5
    endloop
  endfacet
  facet normal 0.895479 -0.445103 0
    outer loop
      vertex 76.7403 -24.5482 66.5
      vertex 75.0934 -27.8615 68.5
      vertex 75.0934 -27.8615 66.5
    endloop
  endfacet
  facet normal 0.837851 -0.5459 0
    outer loop
      vertex 71.1873 -34.25 68.5
      vertex 73.2407 -31.0983 66.5
      vertex 73.2407 -31.0983 68.5
    endloop
  endfacet
  facet normal 0.837851 -0.5459 0
    outer loop
      vertex 73.2407 -31.0983 66.5
      vertex 71.1873 -34.25 68.5
      vertex 71.1873 -34.25 66.5
    endloop
  endfacet
  facet normal 0.942245 -0.334925 0
    outer loop
      vertex 78.1768 -21.1677 68.5
      vertex 79.3991 -17.7291 66.5
      vertex 79.3991 -17.7291 68.5
    endloop
  endfacet
  facet normal 0.942245 -0.334925 0
    outer loop
      vertex 79.3991 -17.7291 66.5
      vertex 78.1768 -21.1677 68.5
      vertex 78.1768 -21.1677 66.5
    endloop
  endfacet
  facet normal 0.976149 -0.217102 0
    outer loop
      vertex 80.4037 -14.242 68.5
      vertex 81.188 -10.7158 66.5
      vertex 81.188 -10.7158 68.5
    endloop
  endfacet
  facet normal 0.976149 -0.217102 0
    outer loop
      vertex 81.188 -10.7158 66.5
      vertex 80.4037 -14.242 68.5
      vertex 80.4037 -14.242 66.5
    endloop
  endfacet
  facet normal 0.99557 -0.0940233 0
    outer loop
      vertex 81.7497 -7.1602 68.5
      vertex 82.0873 -3.58501 66.5
      vertex 82.0873 -3.58501 68.5
    endloop
  endfacet
  facet normal 0.99557 -0.0940233 0
    outer loop
      vertex 82.0873 -3.58501 66.5
      vertex 81.7497 -7.1602 68.5
      vertex 81.7497 -7.1602 66.5
    endloop
  endfacet
  facet normal -0.538719 -0.842486 0
    outer loop
      vertex -51.7301 -53.2345 66.5
      vertex -48.3159 -55.4177 68.5
      vertex -51.7301 -53.2345 68.5
    endloop
  endfacet
  facet normal -0.538719 -0.842486 -0
    outer loop
      vertex -48.3159 -55.4177 68.5
      vertex -51.7301 -53.2345 66.5
      vertex -48.3159 -55.4177 66.5
    endloop
  endfacet
  facet normal -0.369371 -0.929282 0
    outer loop
      vertex -37.318 -61.0339 66.5
      vertex -33.4338 -62.5779 68.5
      vertex -37.318 -61.0339 68.5
    endloop
  endfacet
  facet normal -0.369371 -0.929282 -0
    outer loop
      vertex -33.4338 -62.5779 68.5
      vertex -37.318 -61.0339 66.5
      vertex -33.4338 -62.5779 66.5
    endloop
  endfacet
  facet normal -0.454797 -0.890595 0
    outer loop
      vertex -44.7693 -57.4489 66.5
      vertex -41.1 -59.3227 68.5
      vertex -44.7693 -57.4489 68.5
    endloop
  endfacet
  facet normal -0.454797 -0.890595 -0
    outer loop
      vertex -41.1 -59.3227 68.5
      vertex -44.7693 -57.4489 66.5
      vertex -41.1 -59.3227 66.5
    endloop
  endfacet
  facet normal -0.283032 -0.959111 0
    outer loop
      vertex -29.4578 -63.9503 66.5
      vertex -25.4012 -65.1474 68.5
      vertex -29.4578 -63.9503 68.5
    endloop
  endfacet
  facet normal -0.283032 -0.959111 -0
    outer loop
      vertex -25.4012 -65.1474 68.5
      vertex -29.4578 -63.9503 66.5
      vertex -25.4012 -65.1474 66.5
    endloop
  endfacet
  facet normal -0.196179 -0.980568 0
    outer loop
      vertex -21.2749 -66.1659 66.5
      vertex -17.0903 -67.0031 68.5
      vertex -21.2749 -66.1659 68.5
    endloop
  endfacet
  facet normal -0.196179 -0.980568 -0
    outer loop
      vertex -17.0903 -67.0031 68.5
      vertex -21.2749 -66.1659 66.5
      vertex -17.0903 -67.0031 66.5
    endloop
  endfacet
  facet normal -0.109057 -0.994036 0
    outer loop
      vertex -12.8589 -67.6566 66.5
      vertex -8.59224 -68.1247 68.5
      vertex -12.8589 -67.6566 68.5
    endloop
  endfacet
  facet normal -0.109057 -0.994036 -0
    outer loop
      vertex -8.59224 -68.1247 68.5
      vertex -12.8589 -67.6566 66.5
      vertex -8.59224 -68.1247 66.5
    endloop
  endfacet
  facet normal -0.0218171 -0.999762 0
    outer loop
      vertex -4.30202 -68.4061 66.5
      vertex 0 -68.5 68.5
      vertex -4.30202 -68.4061 68.5
    endloop
  endfacet
  facet normal -0.0218171 -0.999762 -0
    outer loop
      vertex 0 -68.5 68.5
      vertex -4.30202 -68.4061 66.5
      vertex 0 -68.5 66.5
    endloop
  endfacet
  facet normal -0.659844 -0.751402 0
    outer loop
      vertex -61.0865 -45.8354 66.5
      vertex -58.1242 -48.4368 68.5
      vertex -61.0865 -45.8354 68.5
    endloop
  endfacet
  facet normal -0.659844 -0.751402 -0
    outer loop
      vertex -58.1242 -48.4368 68.5
      vertex -61.0865 -45.8354 66.5
      vertex -58.1242 -48.4368 66.5
    endloop
  endfacet
  facet normal -0.867891 -0.496755 0
    outer loop
      vertex -73.2407 -31.0983 66.5
      vertex -75.0934 -27.8615 68.5
      vertex -75.0934 -27.8615 66.5
    endloop
  endfacet
  facet normal -0.867891 -0.496755 0
    outer loop
      vertex -75.0934 -27.8615 68.5
      vertex -73.2407 -31.0983 66.5
      vertex -73.2407 -31.0983 68.5
    endloop
  endfacet
  facet normal -0.805626 -0.592425 0
    outer loop
      vertex -68.9387 -37.3078 66.5
      vertex -71.1873 -34.25 68.5
      vertex -71.1873 -34.25 66.5
    endloop
  endfacet
  facet normal -0.805626 -0.592425 0
    outer loop
      vertex -71.1873 -34.25 68.5
      vertex -68.9387 -37.3078 66.5
      vertex -68.9387 -37.3078 68.5
    endloop
  endfacet
  facet normal -0.73564 -0.677373 0
    outer loop
      vertex -63.8814 -43.1084 66.5
      vertex -66.5012 -40.2633 68.5
      vertex -66.5012 -40.2633 66.5
    endloop
  endfacet
  facet normal -0.73564 -0.677373 0
    outer loop
      vertex -66.5012 -40.2633 68.5
      vertex -63.8814 -43.1084 66.5
      vertex -63.8814 -43.1084 68.5
    endloop
  endfacet
  facet normal -0.942245 -0.334925 0
    outer loop
      vertex -78.1768 -21.1677 66.5
      vertex -79.3991 -17.7291 68.5
      vertex -79.3991 -17.7291 66.5
    endloop
  endfacet
  facet normal -0.942245 -0.334925 0
    outer loop
      vertex -79.3991 -17.7291 68.5
      vertex -78.1768 -21.1677 66.5
      vertex -78.1768 -21.1677 68.5
    endloop
  endfacet
  facet normal -0.976149 -0.217102 0
    outer loop
      vertex -80.4037 -14.242 66.5
      vertex -81.188 -10.7158 68.5
      vertex -81.188 -10.7158 66.5
    endloop
  endfacet
  facet normal -0.976149 -0.217102 0
    outer loop
      vertex -81.188 -10.7158 68.5
      vertex -80.4037 -14.242 66.5
      vertex -80.4037 -14.242 68.5
    endloop
  endfacet
  facet normal -0.99557 -0.0940233 0
    outer loop
      vertex -81.7497 -7.1602 66.5
      vertex -82.0873 -3.58501 68.5
      vertex -82.0873 -3.58501 66.5
    endloop
  endfacet
  facet normal -0.99557 -0.0940233 0
    outer loop
      vertex -82.0873 -3.58501 68.5
      vertex -81.7497 -7.1602 66.5
      vertex -81.7497 -7.1602 68.5
    endloop
  endfacet
  facet normal 1 -0 0
    outer loop
      vertex -57.5 -35 68.5
      vertex -57.5 35 66.5
      vertex -57.5 35 68.5
    endloop
  endfacet
  facet normal 1 0 0
    outer loop
      vertex -57.5 35 66.5
      vertex -57.5 -35 68.5
      vertex -57.5 -35 66.5
    endloop
  endfacet
  facet normal -1 0 0
    outer loop
      vertex 57.5 -35 66.5
      vertex 57.5 35 68.5
      vertex 57.5 35 66.5
    endloop
  endfacet
  facet normal -1 -0 0
    outer loop
      vertex 57.5 35 68.5
      vertex 57.5 -35 66.5
      vertex 57.5 -35 68.5
    endloop
  endfacet
  facet normal 0 1 -0
    outer loop
      vertex 57.5 -35 66.5
      vertex -57.5 -35 68.5
      vertex 57.5 -35 68.5
    endloop
  endfacet
  facet normal 0 1 0
    outer loop
      vertex -57.5 -35 68.5
      vertex 57.5 -35 66.5
      vertex -57.5 -35 66.5
    endloop
  endfacet
  facet normal 0 -1 0
    outer loop
      vertex -57.5 35 66.5
      vertex 57.5 35 68.5
      vertex -57.5 35 68.5
    endloop
  endfacet
  facet normal 0 -1 -0
    outer loop
      vertex 57.5 35 68.5
      vertex -57.5 35 66.5
      vertex 57.5 35 66.5
    endloop
  endfacet
  facet normal -1 0 0
    outer loop
      vertex -63.5 -25 62.5
      vertex -63.5 25 66.5
      vertex -63.5 25 62.5
    endloop
  endfacet
  facet normal -1 -0 0
    outer loop
      vertex -63.5 25 66.5
      vertex -63.5 -25 62.5
      vertex -63.5 -25 66.5
    endloop
  endfacet
  facet normal 1 -0 0
    outer loop
      vertex 63.5 -25 66.5
      vertex 63.5 25 62.5
      vertex 63.5 25 66.5
    endloop
  endfacet
  facet normal 1 0 0
    outer loop
      vertex 63.5 25 62.5
      vertex 63.5 -25 66.5
      vertex 63.5 -25 62.5
    endloop
  endfacet
  facet normal 0 0 -1
    outer loop
      vertex -45 38.75 62.5
      vertex 45 41 62.5
      vertex 45 38.75 62.5
    endloop
  endfacet
  facet normal -0 0 -1
    outer loop
      vertex 45 41 62.5
      vertex -45 38.75 62.5
      vertex -45 41 62.5
    endloop
  endfacet
  facet normal 0 0 -1
    outer loop
      vertex 61.25 -25 62.5
      vertex 63.5 25 62.5
      vertex 63.5 -25 62.5
    endloop
  endfacet
  facet normal -0 0 -1
    outer loop
      vertex 63.5 25 62.5
      vertex 61.25 -25 62.5
      vertex 61.25 25 62.5
    endloop
  endfacet
  facet normal 0 0 -1
    outer loop
      vertex -45 -41 62.5
      vertex 45 -38.75 62.5
      vertex 45 -41 62.5
    endloop
  endfacet
  facet normal -0 0 -1
    outer loop
      vertex 45 -38.75 62.5
      vertex -45 -41 62.5
      vertex -45 -38.75 62.5
    endloop
  endfacet
  facet normal 0 0 -1
    outer loop
      vertex -63.5 -25 62.5
      vertex -61.25 25 62.5
      vertex -61.25 -25 62.5
    endloop
  endfacet
  facet normal -0 0 -1
    outer loop
      vertex -61.25 25 62.5
      vertex -63.5 -25 62.5
      vertex -63.5 25 62.5
    endloop
  endfacet
  facet normal 0 -1 0
    outer loop
      vertex -45 -41 62.5
      vertex 45 -41 66.5
      vertex -45 -41 66.5
    endloop
  endfacet
  facet normal 0 -1 -0
    outer loop
      vertex 45 -41 66.5
      vertex -45 -41 62.5
      vertex 45 -41 62.5
    endloop
  endfacet
  facet normal 0 1 -0
    outer loop
      vertex 45 41 62.5
      vertex -45 41 66.5
      vertex 45 41 66.5
    endloop
  endfacet
  facet normal 0 1 0
    outer loop
      vertex -45 41 66.5
      vertex 45 41 62.5
      vertex -45 41 62.5
    endloop
  endfacet
  facet normal 1 -0 0
    outer loop
      vertex -61.25 -25 66.5
      vertex -61.25 25 62.5
      vertex -61.25 25 66.5
    endloop
  endfacet
  facet normal 1 0 0
    outer loop
      vertex -61.25 25 62.5
      vertex -61.25 -25 66.5
      vertex -61.25 -25 62.5
    endloop
  endfacet
  facet normal -1 0 0
    outer loop
      vertex 61.25 -25 62.5
      vertex 61.25 25 66.5
      vertex 61.25 25 62.5
    endloop
  endfacet
  facet normal -1 -0 0
    outer loop
      vertex 61.25 25 66.5
      vertex 61.25 -25 62.5
      vertex 61.25 -25 66.5
    endloop
  endfacet
  facet normal 0 -1 0
    outer loop
      vertex -45 38.75 62.5
      vertex 45 38.75 66.5
      vertex -45 38.75 66.5
    endloop
  endfacet
  facet normal 0 -1 -0
    outer loop
      vertex 45 38.75 66.5
      vertex -45 38.75 62.5
      vertex 45 38.75 62.5
    endloop
  endfacet
  facet normal 0 1 -0
    outer loop
      vertex 45 -38.75 62.5
      vertex -45 -38.75 66.5
      vertex 45 -38.75 66.5
    endloop
  endfacet
  facet normal 0 1 0
    outer loop
      vertex -45 -38.75 66.5
      vertex 45 -38.75 62.5
      vertex -45 -38.75 62.5
    endloop
  endfacet
  facet normal 1 -0 0
    outer loop
      vertex 45 38.75 66.5
      vertex 45 41 62.5
      vertex 45 41 66.5
    endloop
  endfacet
  facet normal 1 0 0
    outer loop
      vertex 45 41 62.5
      vertex 45 38.75 66.5
      vertex 45 38.75 62.5
    endloop
  endfacet
  facet normal 0 1 -0
    outer loop
      vertex 63.5 25 62.5
      vertex 61.25 25 66.5
      vertex 63.5 25 66.5
    endloop
  endfacet
  facet normal 0 1 0
    outer loop
      vertex 61.25 25 66.5
      vertex 63.5 25 62.5
      vertex 61.25 25 62.5
    endloop
  endfacet
  facet normal 1 -0 0
    outer loop
      vertex 45 -41 66.5
      vertex 45 -38.75 62.5
      vertex 45 -38.75 66.5
    endloop
  endfacet
  facet normal 1 0 0
    outer loop
      vertex 45 -38.75 62.5
      vertex 45 -41 66.5
      vertex 45 -41 62.5
    endloop
  endfacet
  facet normal 0 -1 0
    outer loop
      vertex 61.25 -25 62.5
      vertex 63.5 -25 66.5
      vertex 61.25 -25 66.5
    endloop
  endfacet
  facet normal 0 -1 -0
    outer loop
      vertex 63.5 -25 66.5
      vertex 61.25 -25 62.5
      vertex 63.5 -25 62.5
    endloop
  endfacet
  facet normal -1 0 0
    outer loop
      vertex -45 38.75 62.5
      vertex -45 41 66.5
      vertex -45 41 62.5
    endloop
  endfacet
  facet normal -1 -0 0
    outer loop
      vertex -45 41 66.5
      vertex -45 38.75 62.5
      vertex -45 38.75 66.5
    endloop
  endfacet
  facet normal 0 1 -0
    outer loop
      vertex -61.25 25 62.5
      vertex -63.5 25 66.5
      vertex -61.25 25 66.5
    endloop
  endfacet
  facet normal 0 1 0
    outer loop
      vertex -63.5 25 66.5
      vertex -61.25 25 62.5
      vertex -63.5 25 62.5
    endloop
  endfacet
  facet normal -1 0 0
    outer loop
      vertex -45 -41 62.5
      vertex -45 -38.75 66.5
      vertex -45 -38.75 62.5
    endloop
  endfacet
  facet normal -1 -0 0
    outer loop
      vertex -45 -38.75 66.5
      vertex -45 -41 62.5
      vertex -45 -41 66.5
    endloop
  endfacet
  facet normal 0 -1 0
    outer loop
      vertex -63.5 -25 62.5
      vertex -61.25 -25 66.5
      vertex -63.5 -25 66.5
    endloop
  endfacet
  facet normal 0 -1 -0
    outer loop
      vertex -61.25 -25 66.5
      vertex -63.5 -25 62.5
      vertex -61.25 -25 62.5
    endloop
  endfacet
endsolid OpenSCAD_Model
