solid OpenSCAD_Model
  facet normal -0.587784 0 0.809018
    outer loop
      vertex -2.5 39.6 37.625
      vertex -1.1923 38 38.5751
      vertex -1.1923 39.6 38.5751
    endloop
  endfacet
  facet normal -0.587784 0 0.809018
    outer loop
      vertex -1.1923 38 38.5751
      vertex -2.5 39.6 37.625
      vertex -2.5 38 37.625
    endloop
  endfacet
  facet normal 0 0 -1
    outer loop
      vertex -3.3082 38 40.1124
      vertex -1.69179 39.6 40.1124
      vertex -1.69179 38 40.1124
    endloop
  endfacet
  facet normal -0 0 -1
    outer loop
      vertex -1.69179 39.6 40.1124
      vertex -3.3082 38 40.1124
      vertex -3.3082 39.6 40.1124
    endloop
  endfacet
  facet normal -0.951057 0 -0.309017
    outer loop
      vertex -1.1923 38 38.5751
      vertex -1.69179 39.6 40.1124
      vertex -1.1923 39.6 38.5751
    endloop
  endfacet
  facet normal -0.951057 -0 -0.309017
    outer loop
      vertex -1.69179 39.6 40.1124
      vertex -1.1923 38 38.5751
      vertex -1.69179 38 40.1124
    endloop
  endfacet
  facet normal 0.951057 0 -0.309017
    outer loop
      vertex -3.3082 38 40.1124
      vertex -3.8077 39.6 38.5751
      vertex -3.3082 39.6 40.1124
    endloop
  endfacet
  facet normal 0.951057 0 -0.309017
    outer loop
      vertex -3.8077 39.6 38.5751
      vertex -3.3082 38 40.1124
      vertex -3.8077 38 38.5751
    endloop
  endfacet
  facet normal 0.587785 0 0.809017
    outer loop
      vertex -3.8077 39.6 38.5751
      vertex -2.5 38 37.625
      vertex -2.5 39.6 37.625
    endloop
  endfacet
  facet normal 0.587785 0 0.809017
    outer loop
      vertex -2.5 38 37.625
      vertex -3.8077 39.6 38.5751
      vertex -3.8077 38 38.5751
    endloop
  endfacet
  facet normal -0.587785 0 0.809017
    outer loop
      vertex 46.5 39.6 37.625
      vertex 47.8077 38 38.5751
      vertex 47.8077 39.6 38.5751
    endloop
  endfacet
  facet normal -0.587785 0 0.809017
    outer loop
      vertex 47.8077 38 38.5751
      vertex 46.5 39.6 37.625
      vertex 46.5 38 37.625
    endloop
  endfacet
  facet normal 0 0 -1
    outer loop
      vertex 45.6918 38 40.1124
      vertex 47.3082 39.6 40.1124
      vertex 47.3082 38 40.1124
    endloop
  endfacet
  facet normal -0 0 -1
    outer loop
      vertex 47.3082 39.6 40.1124
      vertex 45.6918 38 40.1124
      vertex 45.6918 39.6 40.1124
    endloop
  endfacet
  facet normal -0.951057 0 -0.309016
    outer loop
      vertex 47.8077 38 38.5751
      vertex 47.3082 39.6 40.1124
      vertex 47.8077 39.6 38.5751
    endloop
  endfacet
  facet normal -0.951057 -0 -0.309016
    outer loop
      vertex 47.3082 39.6 40.1124
      vertex 47.8077 38 38.5751
      vertex 47.3082 38 40.1124
    endloop
  endfacet
  facet normal 0.951056 0 -0.309018
    outer loop
      vertex 45.6918 38 40.1124
      vertex 45.1923 39.6 38.5751
      vertex 45.6918 39.6 40.1124
    endloop
  endfacet
  facet normal 0.951056 0 -0.309018
    outer loop
      vertex 45.1923 39.6 38.5751
      vertex 45.6918 38 40.1124
      vertex 45.1923 38 38.5751
    endloop
  endfacet
  facet normal 0.587784 0 0.809018
    outer loop
      vertex 45.1923 39.6 38.5751
      vertex 46.5 38 37.625
      vertex 46.5 39.6 37.625
    endloop
  endfacet
  facet normal 0.587784 0 0.809018
    outer loop
      vertex 46.5 38 37.625
      vertex 45.1923 39.6 38.5751
      vertex 45.1923 38 38.5751
    endloop
  endfacet
  facet normal -0.587785 0 0.809017
    outer loop
      vertex -2.5 39.6 -20.375
      vertex -1.1923 38 -19.4249
      vertex -1.1923 39.6 -19.4249
    endloop
  endfacet
  facet normal -0.587785 0 0.809017
    outer loop
      vertex -1.1923 38 -19.4249
      vertex -2.5 39.6 -20.375
      vertex -2.5 38 -20.375
    endloop
  endfacet
  facet normal 0 0 -1
    outer loop
      vertex -3.3082 38 -17.8876
      vertex -1.69179 39.6 -17.8876
      vertex -1.69179 38 -17.8876
    endloop
  endfacet
  facet normal -0 0 -1
    outer loop
      vertex -1.69179 39.6 -17.8876
      vertex -3.3082 38 -17.8876
      vertex -3.3082 39.6 -17.8876
    endloop
  endfacet
  facet normal -0.951057 0 -0.309017
    outer loop
      vertex -1.1923 38 -19.4249
      vertex -1.69179 39.6 -17.8876
      vertex -1.1923 39.6 -19.4249
    endloop
  endfacet
  facet normal -0.951057 -0 -0.309017
    outer loop
      vertex -1.69179 39.6 -17.8876
      vertex -1.1923 38 -19.4249
      vertex -1.69179 38 -17.8876
    endloop
  endfacet
  facet normal 0.587786 0 0.809017
    outer loop
      vertex -3.8077 39.6 -19.4249
      vertex -2.5 38 -20.375
      vertex -2.5 39.6 -20.375
    endloop
  endfacet
  facet normal 0.587786 0 0.809017
    outer loop
      vertex -2.5 38 -20.375
      vertex -3.8077 39.6 -19.4249
      vertex -3.8077 38 -19.4249
    endloop
  endfacet
  facet normal 0.951057 0 -0.309017
    outer loop
      vertex -3.3082 38 -17.8876
      vertex -3.8077 39.6 -19.4249
      vertex -3.3082 39.6 -17.8876
    endloop
  endfacet
  facet normal 0.951057 0 -0.309017
    outer loop
      vertex -3.8077 39.6 -19.4249
      vertex -3.3082 38 -17.8876
      vertex -3.8077 38 -19.4249
    endloop
  endfacet
  facet normal -0.587786 0 0.809017
    outer loop
      vertex 46.5 39.6 -20.375
      vertex 47.8077 38 -19.4249
      vertex 47.8077 39.6 -19.4249
    endloop
  endfacet
  facet normal -0.587786 0 0.809017
    outer loop
      vertex 47.8077 38 -19.4249
      vertex 46.5 39.6 -20.375
      vertex 46.5 38 -20.375
    endloop
  endfacet
  facet normal 0 0 -1
    outer loop
      vertex 45.6918 38 -17.8876
      vertex 47.3082 39.6 -17.8876
      vertex 47.3082 38 -17.8876
    endloop
  endfacet
  facet normal -0 0 -1
    outer loop
      vertex 47.3082 39.6 -17.8876
      vertex 45.6918 38 -17.8876
      vertex 45.6918 39.6 -17.8876
    endloop
  endfacet
  facet normal -0.951057 0 -0.309016
    outer loop
      vertex 47.8077 38 -19.4249
      vertex 47.3082 39.6 -17.8876
      vertex 47.8077 39.6 -19.4249
    endloop
  endfacet
  facet normal -0.951057 -0 -0.309016
    outer loop
      vertex 47.3082 39.6 -17.8876
      vertex 47.8077 38 -19.4249
      vertex 47.3082 38 -17.8876
    endloop
  endfacet
  facet normal 0.951057 0 -0.309016
    outer loop
      vertex 45.6918 38 -17.8876
      vertex 45.1923 39.6 -19.4249
      vertex 45.6918 39.6 -17.8876
    endloop
  endfacet
  facet normal 0.951057 0 -0.309016
    outer loop
      vertex 45.1923 39.6 -19.4249
      vertex 45.6918 38 -17.8876
      vertex 45.1923 38 -19.4249
    endloop
  endfacet
  facet normal 0.587786 0 0.809017
    outer loop
      vertex 45.1923 39.6 -19.4249
      vertex 46.5 38 -20.375
      vertex 46.5 39.6 -20.375
    endloop
  endfacet
  facet normal 0.587786 0 0.809017
    outer loop
      vertex 46.5 38 -20.375
      vertex 45.1923 39.6 -19.4249
      vertex 45.1923 38 -19.4249
    endloop
  endfacet
  facet normal -1 0 0
    outer loop
      vertex -77.5 38 -70
      vertex -77.5 40 50
      vertex -77.5 40 -70
    endloop
  endfacet
  facet normal -1 -0 0
    outer loop
      vertex -77.5 40 50
      vertex -77.5 38 -70
      vertex -77.5 38 50
    endloop
  endfacet
  facet normal -0 0 1
    outer loop
      vertex -77.5 40 50
      vertex 77.5 38 50
      vertex 77.5 40 50
    endloop
  endfacet
  facet normal 0 0 1
    outer loop
      vertex 77.5 38 50
      vertex -77.5 40 50
      vertex -77.5 38 50
    endloop
  endfacet
  facet normal 1 -0 0
    outer loop
      vertex 77.5 38 50
      vertex 77.5 40 -70
      vertex 77.5 40 50
    endloop
  endfacet
  facet normal 1 0 0
    outer loop
      vertex 77.5 40 -70
      vertex 77.5 38 50
      vertex 77.5 38 -70
    endloop
  endfacet
  facet normal 0 0 -1
    outer loop
      vertex -77.5 38 -70
      vertex 77.5 40 -70
      vertex 77.5 38 -70
    endloop
  endfacet
  facet normal -0 0 -1
    outer loop
      vertex 77.5 40 -70
      vertex -77.5 38 -70
      vertex -77.5 40 -70
    endloop
  endfacet
  facet normal 0 -1 0
    outer loop
      vertex 47.8077 38 38.5751
      vertex 73.3876 38 -9.1918
      vertex 74.9249 38 -8.6923
    endloop
  endfacet
  facet normal 0 -1 0
    outer loop
      vertex -3.8077 38 38.5751
      vertex -3.3082 38 -17.8876
      vertex -2.5 38 37.625
    endloop
  endfacet
  facet normal -0 -1 0
    outer loop
      vertex 45.6918 38 -17.8876
      vertex -2.5 38 37.625
      vertex -1.69179 38 -17.8876
    endloop
  endfacet
  facet normal 0 -1 0
    outer loop
      vertex -3.8077 38 -19.4249
      vertex -73.125 38 -10
      vertex -74.0751 38 -11.3077
    endloop
  endfacet
  facet normal 0 -1 0
    outer loop
      vertex -2.5 38 37.625
      vertex 45.6918 38 -17.8876
      vertex 73.3876 38 -9.1918
    endloop
  endfacet
  facet normal 0 -1 0
    outer loop
      vertex -1.1923 38 38.5751
      vertex 45.6918 38 40.1124
      vertex -1.69179 38 40.1124
    endloop
  endfacet
  facet normal 0 -1 0
    outer loop
      vertex -1.1923 38 38.5751
      vertex 45.1923 38 38.5751
      vertex 45.6918 38 40.1124
    endloop
  endfacet
  facet normal 0 -1 0
    outer loop
      vertex -2.5 38 37.625
      vertex 45.1923 38 38.5751
      vertex -1.1923 38 38.5751
    endloop
  endfacet
  facet normal 0 -1 -0
    outer loop
      vertex 45.1923 38 38.5751
      vertex -2.5 38 37.625
      vertex 46.5 38 37.625
    endloop
  endfacet
  facet normal 0 -1 0
    outer loop
      vertex -77.5 38 50
      vertex -3.3082 38 40.1124
      vertex 77.5 38 50
    endloop
  endfacet
  facet normal 0 -1 0
    outer loop
      vertex -77.5 38 50
      vertex -3.8077 38 38.5751
      vertex -3.3082 38 40.1124
    endloop
  endfacet
  facet normal 0 -1 0
    outer loop
      vertex -74.0751 38 -8.6923
      vertex -3.8077 38 38.5751
      vertex -77.5 38 50
    endloop
  endfacet
  facet normal 0 -1 0
    outer loop
      vertex -3.3082 38 -17.8876
      vertex -3.8077 38 38.5751
      vertex -73.125 38 -10
    endloop
  endfacet
  facet normal 0 -1 0
    outer loop
      vertex -73.125 38 -10
      vertex -3.8077 38 38.5751
      vertex -74.0751 38 -8.6923
    endloop
  endfacet
  facet normal 0 -1 0
    outer loop
      vertex -77.5 38 50
      vertex -75.6124 38 -9.1918
      vertex -74.0751 38 -8.6923
    endloop
  endfacet
  facet normal 0 -1 0
    outer loop
      vertex -77.5 38 50
      vertex -75.6124 38 -10.8082
      vertex -75.6124 38 -9.1918
    endloop
  endfacet
  facet normal 0 -1 0
    outer loop
      vertex 47.3082 38 -17.8876
      vertex 73.3876 38 -9.1918
      vertex 45.6918 38 -17.8876
    endloop
  endfacet
  facet normal 0 -1 -0
    outer loop
      vertex -2.5 38 37.625
      vertex -3.3082 38 -17.8876
      vertex -1.69179 38 -17.8876
    endloop
  endfacet
  facet normal 0 -1 0
    outer loop
      vertex -73.125 38 -10
      vertex -3.8077 38 -19.4249
      vertex -3.3082 38 -17.8876
    endloop
  endfacet
  facet normal 0 -1 0
    outer loop
      vertex -77.5 38 -70
      vertex -3.8077 38 -19.4249
      vertex -74.0751 38 -11.3077
    endloop
  endfacet
  facet normal 0 -1 0
    outer loop
      vertex 77.5 38 -70
      vertex -2.5 38 -20.375
      vertex -77.5 38 -70
    endloop
  endfacet
  facet normal 0 -1 -0
    outer loop
      vertex -3.8077 38 -19.4249
      vertex -77.5 38 -70
      vertex -2.5 38 -20.375
    endloop
  endfacet
  facet normal 0 -1 -0
    outer loop
      vertex -75.6124 38 -10.8082
      vertex -77.5 38 -70
      vertex -74.0751 38 -11.3077
    endloop
  endfacet
  facet normal 0 -1 0
    outer loop
      vertex -77.5 38 -70
      vertex -75.6124 38 -10.8082
      vertex -77.5 38 50
    endloop
  endfacet
  facet normal 0 -1 0
    outer loop
      vertex -1.69179 38 40.1124
      vertex 77.5 38 50
      vertex -3.3082 38 40.1124
    endloop
  endfacet
  facet normal 0 -1 0
    outer loop
      vertex 45.6918 38 40.1124
      vertex 77.5 38 50
      vertex -1.69179 38 40.1124
    endloop
  endfacet
  facet normal 0 -1 0
    outer loop
      vertex 47.3082 38 40.1124
      vertex 77.5 38 50
      vertex 45.6918 38 40.1124
    endloop
  endfacet
  facet normal 0 -1 0
    outer loop
      vertex 47.8077 38 38.5751
      vertex 77.5 38 50
      vertex 47.3082 38 40.1124
    endloop
  endfacet
  facet normal 0 -1 0
    outer loop
      vertex 73.3876 38 -9.1918
      vertex 47.8077 38 38.5751
      vertex 46.5 38 37.625
    endloop
  endfacet
  facet normal 0 -1 0
    outer loop
      vertex 73.3876 38 -9.1918
      vertex 46.5 38 37.625
      vertex -2.5 38 37.625
    endloop
  endfacet
  facet normal 0 -1 0
    outer loop
      vertex 47.8077 38 38.5751
      vertex 74.9249 38 -8.6923
      vertex 77.5 38 50
    endloop
  endfacet
  facet normal 0 -1 0
    outer loop
      vertex 75.875 38 -10
      vertex 77.5 38 50
      vertex 74.9249 38 -8.6923
    endloop
  endfacet
  facet normal 0 -1 0
    outer loop
      vertex 47.8077 38 -19.4249
      vertex 73.3876 38 -10.8082
      vertex 47.3082 38 -17.8876
    endloop
  endfacet
  facet normal 0 -1 -0
    outer loop
      vertex 73.3876 38 -10.8082
      vertex 47.8077 38 -19.4249
      vertex 74.9249 38 -11.3077
    endloop
  endfacet
  facet normal 0 -1 0
    outer loop
      vertex 77.5 38 -70
      vertex 47.8077 38 -19.4249
      vertex 46.5 38 -20.375
    endloop
  endfacet
  facet normal 0 -1 0
    outer loop
      vertex -2.5 38 -20.375
      vertex 77.5 38 -70
      vertex 46.5 38 -20.375
    endloop
  endfacet
  facet normal 0 -1 0
    outer loop
      vertex 75.875 38 -10
      vertex 77.5 38 -70
      vertex 77.5 38 50
    endloop
  endfacet
  facet normal 0 -1 0
    outer loop
      vertex 74.9249 38 -11.3077
      vertex 77.5 38 -70
      vertex 75.875 38 -10
    endloop
  endfacet
  facet normal 0 -1 0
    outer loop
      vertex 47.8077 38 -19.4249
      vertex 77.5 38 -70
      vertex 74.9249 38 -11.3077
    endloop
  endfacet
  facet normal 0 -1 -0
    outer loop
      vertex 73.3876 38 -9.1918
      vertex 47.3082 38 -17.8876
      vertex 73.3876 38 -10.8082
    endloop
  endfacet
  facet normal 0 -1 0
    outer loop
      vertex -1.1923 38 -19.4249
      vertex 45.6918 38 -17.8876
      vertex -1.69179 38 -17.8876
    endloop
  endfacet
  facet normal 0 -1 0
    outer loop
      vertex -1.1923 38 -19.4249
      vertex 45.1923 38 -19.4249
      vertex 45.6918 38 -17.8876
    endloop
  endfacet
  facet normal 0 -1 0
    outer loop
      vertex -2.5 38 -20.375
      vertex 45.1923 38 -19.4249
      vertex -1.1923 38 -19.4249
    endloop
  endfacet
  facet normal 0 -1 -0
    outer loop
      vertex 45.1923 38 -19.4249
      vertex -2.5 38 -20.375
      vertex 46.5 38 -20.375
    endloop
  endfacet
  facet normal 0 1 0
    outer loop
      vertex -5.85317 40 40.4271
      vertex -73.125 40 -10
      vertex -74.0751 40 -8.6923
    endloop
  endfacet
  facet normal 0 1 -0
    outer loop
      vertex -5.85317 40 -40.4271
      vertex -73.125 40 -10
      vertex -5.85317 40 40.4271
    endloop
  endfacet
  facet normal 0 1 0
    outer loop
      vertex -73.125 40 -10
      vertex -5.85317 40 -40.4271
      vertex -74.0751 40 -11.3077
    endloop
  endfacet
  facet normal 0 1 0
    outer loop
      vertex -3 40 42.5
      vertex 77.5 40 50
      vertex 47 40 42.5
    endloop
  endfacet
  facet normal 0 1 0
    outer loop
      vertex 77.5 40 50
      vertex 48.7634 40 41.9271
      vertex 47 40 42.5
    endloop
  endfacet
  facet normal 0 1 0
    outer loop
      vertex 77.5 40 50
      vertex 49.8532 40 40.4271
      vertex 48.7634 40 41.9271
    endloop
  endfacet
  facet normal 0 1 0
    outer loop
      vertex 77.5 40 50
      vertex 74.9249 40 -8.6923
      vertex 49.8532 40 40.4271
    endloop
  endfacet
  facet normal 0 1 0
    outer loop
      vertex 77.5 40 50
      vertex 75.875 40 -10
      vertex 74.9249 40 -8.6923
    endloop
  endfacet
  facet normal 0 1 0
    outer loop
      vertex 77.5 40 -70
      vertex 49.8532 40 -40.4271
      vertex 74.9249 40 -11.3077
    endloop
  endfacet
  facet normal 0 1 0
    outer loop
      vertex 47 40 -42.5
      vertex 77.5 40 -70
      vertex -3 40 -42.5
    endloop
  endfacet
  facet normal 0 1 0
    outer loop
      vertex 48.7634 40 -41.9271
      vertex 77.5 40 -70
      vertex 47 40 -42.5
    endloop
  endfacet
  facet normal 0 1 0
    outer loop
      vertex 49.8532 40 -40.4271
      vertex 77.5 40 -70
      vertex 48.7634 40 -41.9271
    endloop
  endfacet
  facet normal 0 1 0
    outer loop
      vertex 75.875 40 -10
      vertex 77.5 40 -70
      vertex 74.9249 40 -11.3077
    endloop
  endfacet
  facet normal 0 1 -0
    outer loop
      vertex 77.5 40 -70
      vertex 75.875 40 -10
      vertex 77.5 40 50
    endloop
  endfacet
  facet normal 0 1 0
    outer loop
      vertex 77.5 40 50
      vertex -3 40 42.5
      vertex -77.5 40 50
    endloop
  endfacet
  facet normal 0 1 -0
    outer loop
      vertex -4.76336 40 41.9271
      vertex -77.5 40 50
      vertex -3 40 42.5
    endloop
  endfacet
  facet normal 0 1 -0
    outer loop
      vertex -5.85317 40 40.4271
      vertex -77.5 40 50
      vertex -4.76336 40 41.9271
    endloop
  endfacet
  facet normal 0 1 -0
    outer loop
      vertex -74.0751 40 -8.6923
      vertex -77.5 40 50
      vertex -5.85317 40 40.4271
    endloop
  endfacet
  facet normal 0 1 -0
    outer loop
      vertex -75.6124 40 -9.1918
      vertex -77.5 40 50
      vertex -74.0751 40 -8.6923
    endloop
  endfacet
  facet normal 0 1 -0
    outer loop
      vertex -75.6124 40 -10.8082
      vertex -77.5 40 50
      vertex -75.6124 40 -9.1918
    endloop
  endfacet
  facet normal 0 1 0
    outer loop
      vertex -77.5 40 -70
      vertex -74.0751 40 -11.3077
      vertex -5.85317 40 -40.4271
    endloop
  endfacet
  facet normal 0 1 0
    outer loop
      vertex -77.5 40 -70
      vertex -5.85317 40 -40.4271
      vertex -4.76336 40 -41.9271
    endloop
  endfacet
  facet normal 0 1 0
    outer loop
      vertex -77.5 40 -70
      vertex -3 40 -42.5
      vertex 77.5 40 -70
    endloop
  endfacet
  facet normal 0 1 0
    outer loop
      vertex -75.6124 40 -10.8082
      vertex -77.5 40 -70
      vertex -77.5 40 50
    endloop
  endfacet
  facet normal 0 1 0
    outer loop
      vertex -74.0751 40 -11.3077
      vertex -77.5 40 -70
      vertex -75.6124 40 -10.8082
    endloop
  endfacet
  facet normal 0 1 0
    outer loop
      vertex -3 40 -42.5
      vertex -77.5 40 -70
      vertex -4.76336 40 -41.9271
    endloop
  endfacet
  facet normal 0 1 -0
    outer loop
      vertex 73.3876 40 -9.1918
      vertex 49.8532 40 40.4271
      vertex 74.9249 40 -8.6923
    endloop
  endfacet
  facet normal 0 1 0
    outer loop
      vertex 49.8532 40 -40.4271
      vertex 73.3876 40 -9.1918
      vertex 73.3876 40 -10.8082
    endloop
  endfacet
  facet normal 0 1 0
    outer loop
      vertex 73.3876 40 -9.1918
      vertex 49.8532 40 -40.4271
      vertex 49.8532 40 40.4271
    endloop
  endfacet
  facet normal 0 1 0
    outer loop
      vertex 49.8532 40 -40.4271
      vertex 73.3876 40 -10.8082
      vertex 74.9249 40 -11.3077
    endloop
  endfacet
  facet normal 0 0 -1
    outer loop
      vertex -3 39.6 42.5
      vertex 47 40 42.5
      vertex 47 39.6 42.5
    endloop
  endfacet
  facet normal -0 0 -1
    outer loop
      vertex 47 40 42.5
      vertex -3 39.6 42.5
      vertex -3 40 42.5
    endloop
  endfacet
  facet normal -1 0 0
    outer loop
      vertex 49.8532 39.6 -40.4271
      vertex 49.8532 40 40.4271
      vertex 49.8532 40 -40.4271
    endloop
  endfacet
  facet normal -1 -0 0
    outer loop
      vertex 49.8532 40 40.4271
      vertex 49.8532 39.6 -40.4271
      vertex 49.8532 39.6 40.4271
    endloop
  endfacet
  facet normal -0.309017 0 0.951057
    outer loop
      vertex 47 40 -42.5
      vertex 48.7634 39.6 -41.9271
      vertex 48.7634 40 -41.9271
    endloop
  endfacet
  facet normal -0.309017 0 0.951057
    outer loop
      vertex 48.7634 39.6 -41.9271
      vertex 47 40 -42.5
      vertex 47 39.6 -42.5
    endloop
  endfacet
  facet normal 1 -0 0
    outer loop
      vertex -5.85317 39.6 40.4271
      vertex -5.85317 40 -40.4271
      vertex -5.85317 40 40.4271
    endloop
  endfacet
  facet normal 1 0 0
    outer loop
      vertex -5.85317 40 -40.4271
      vertex -5.85317 39.6 40.4271
      vertex -5.85317 39.6 -40.4271
    endloop
  endfacet
  facet normal 0.809017 0 -0.587785
    outer loop
      vertex -4.76336 39.6 41.9271
      vertex -5.85317 40 40.4271
      vertex -4.76336 40 41.9271
    endloop
  endfacet
  facet normal 0.809017 0 -0.587785
    outer loop
      vertex -5.85317 40 40.4271
      vertex -4.76336 39.6 41.9271
      vertex -5.85317 39.6 40.4271
    endloop
  endfacet
  facet normal 0.809017 -0 0.587785
    outer loop
      vertex -5.85317 39.6 -40.4271
      vertex -4.76336 40 -41.9271
      vertex -5.85317 40 -40.4271
    endloop
  endfacet
  facet normal 0.809017 0 0.587785
    outer loop
      vertex -4.76336 40 -41.9271
      vertex -5.85317 39.6 -40.4271
      vertex -4.76336 39.6 -41.9271
    endloop
  endfacet
  facet normal -0 0 1
    outer loop
      vertex -3 40 -42.5
      vertex 47 39.6 -42.5
      vertex 47 40 -42.5
    endloop
  endfacet
  facet normal 0 0 1
    outer loop
      vertex 47 39.6 -42.5
      vertex -3 40 -42.5
      vertex -3 39.6 -42.5
    endloop
  endfacet
  facet normal -0.809017 0 -0.587785
    outer loop
      vertex 49.8532 39.6 40.4271
      vertex 48.7634 40 41.9271
      vertex 49.8532 40 40.4271
    endloop
  endfacet
  facet normal -0.809017 -0 -0.587785
    outer loop
      vertex 48.7634 40 41.9271
      vertex 49.8532 39.6 40.4271
      vertex 48.7634 39.6 41.9271
    endloop
  endfacet
  facet normal -0.309017 0 -0.951057
    outer loop
      vertex 47 39.6 42.5
      vertex 48.7634 40 41.9271
      vertex 48.7634 39.6 41.9271
    endloop
  endfacet
  facet normal -0.309017 0 -0.951057
    outer loop
      vertex 48.7634 40 41.9271
      vertex 47 39.6 42.5
      vertex 47 40 42.5
    endloop
  endfacet
  facet normal 0.309017 0 0.951057
    outer loop
      vertex -4.76336 40 -41.9271
      vertex -3 39.6 -42.5
      vertex -3 40 -42.5
    endloop
  endfacet
  facet normal 0.309017 0 0.951057
    outer loop
      vertex -3 39.6 -42.5
      vertex -4.76336 40 -41.9271
      vertex -4.76336 39.6 -41.9271
    endloop
  endfacet
  facet normal 0 1 -0
    outer loop
      vertex 45.1923 39.6 -19.4249
      vertex -1.69179 39.6 -17.8876
      vertex 45.6918 39.6 -17.8876
    endloop
  endfacet
  facet normal 0 1 0
    outer loop
      vertex 45.1923 39.6 -19.4249
      vertex -1.1923 39.6 -19.4249
      vertex -1.69179 39.6 -17.8876
    endloop
  endfacet
  facet normal 0 1 0
    outer loop
      vertex 47 39.6 -42.5
      vertex 45.1923 39.6 -19.4249
      vertex 46.5 39.6 -20.375
    endloop
  endfacet
  facet normal 0 1 0
    outer loop
      vertex 45.1923 39.6 -19.4249
      vertex 47 39.6 -42.5
      vertex -1.1923 39.6 -19.4249
    endloop
  endfacet
  facet normal 0 1 -0
    outer loop
      vertex 45.1923 39.6 38.5751
      vertex -1.69179 39.6 40.1124
      vertex 45.6918 39.6 40.1124
    endloop
  endfacet
  facet normal 0 1 0
    outer loop
      vertex 45.1923 39.6 38.5751
      vertex -1.1923 39.6 38.5751
      vertex -1.69179 39.6 40.1124
    endloop
  endfacet
  facet normal 0 1 -0
    outer loop
      vertex 45.6918 39.6 -17.8876
      vertex 45.1923 39.6 38.5751
      vertex 46.5 39.6 37.625
    endloop
  endfacet
  facet normal 0 1 0
    outer loop
      vertex 45.1923 39.6 38.5751
      vertex 45.6918 39.6 -17.8876
      vertex -1.1923 39.6 38.5751
    endloop
  endfacet
  facet normal 0 1 -0
    outer loop
      vertex 47.3082 39.6 40.1124
      vertex 47 39.6 42.5
      vertex 48.7634 39.6 41.9271
    endloop
  endfacet
  facet normal 0 1 0
    outer loop
      vertex 47 39.6 42.5
      vertex 45.6918 39.6 40.1124
      vertex -3 39.6 42.5
    endloop
  endfacet
  facet normal 0 1 0
    outer loop
      vertex 47.3082 39.6 40.1124
      vertex 48.7634 39.6 41.9271
      vertex 49.8532 39.6 40.4271
    endloop
  endfacet
  facet normal 0 1 -0
    outer loop
      vertex -1.69179 39.6 40.1124
      vertex -3 39.6 42.5
      vertex 45.6918 39.6 40.1124
    endloop
  endfacet
  facet normal 0 1 0
    outer loop
      vertex 47 39.6 42.5
      vertex 47.3082 39.6 40.1124
      vertex 45.6918 39.6 40.1124
    endloop
  endfacet
  facet normal 0 1 0
    outer loop
      vertex 49.8532 39.6 40.4271
      vertex 47.8077 39.6 38.5751
      vertex 47.3082 39.6 40.1124
    endloop
  endfacet
  facet normal 0 1 0
    outer loop
      vertex 45.6918 39.6 -17.8876
      vertex 46.5 39.6 37.625
      vertex 47.3082 39.6 -17.8876
    endloop
  endfacet
  facet normal 0 1 0
    outer loop
      vertex 47.8077 39.6 38.5751
      vertex 47.3082 39.6 -17.8876
      vertex 46.5 39.6 37.625
    endloop
  endfacet
  facet normal 0 1 0
    outer loop
      vertex 49.8532 39.6 40.4271
      vertex 47.3082 39.6 -17.8876
      vertex 47.8077 39.6 38.5751
    endloop
  endfacet
  facet normal 0 1 0
    outer loop
      vertex 49.8532 39.6 40.4271
      vertex 47.8077 39.6 -19.4249
      vertex 47.3082 39.6 -17.8876
    endloop
  endfacet
  facet normal 0 1 -0
    outer loop
      vertex 47 39.6 -42.5
      vertex 46.5 39.6 -20.375
      vertex 49.8532 39.6 -40.4271
    endloop
  endfacet
  facet normal 0 1 0
    outer loop
      vertex 47.8077 39.6 -19.4249
      vertex 49.8532 39.6 -40.4271
      vertex 46.5 39.6 -20.375
    endloop
  endfacet
  facet normal 0 1 -0
    outer loop
      vertex 49.8532 39.6 -40.4271
      vertex 47.8077 39.6 -19.4249
      vertex 49.8532 39.6 40.4271
    endloop
  endfacet
  facet normal 0 1 0
    outer loop
      vertex -3.3082 39.6 40.1124
      vertex -3 39.6 42.5
      vertex -1.69179 39.6 40.1124
    endloop
  endfacet
  facet normal 0 1 0
    outer loop
      vertex -3 39.6 42.5
      vertex -3.3082 39.6 40.1124
      vertex -4.76336 39.6 41.9271
    endloop
  endfacet
  facet normal 0 1 0
    outer loop
      vertex -4.76336 39.6 41.9271
      vertex -3.3082 39.6 40.1124
      vertex -5.85317 39.6 40.4271
    endloop
  endfacet
  facet normal 0 1 -0
    outer loop
      vertex -3.8077 39.6 38.5751
      vertex -5.85317 39.6 40.4271
      vertex -3.3082 39.6 40.1124
    endloop
  endfacet
  facet normal 0 1 0
    outer loop
      vertex -1.69179 39.6 -17.8876
      vertex -1.1923 39.6 38.5751
      vertex 45.6918 39.6 -17.8876
    endloop
  endfacet
  facet normal 0 1 0
    outer loop
      vertex -1.1923 39.6 38.5751
      vertex -1.69179 39.6 -17.8876
      vertex -2.5 39.6 37.625
    endloop
  endfacet
  facet normal 0 1 0
    outer loop
      vertex -3.3082 39.6 -17.8876
      vertex -2.5 39.6 37.625
      vertex -1.69179 39.6 -17.8876
    endloop
  endfacet
  facet normal 0 1 0
    outer loop
      vertex -2.5 39.6 37.625
      vertex -3.3082 39.6 -17.8876
      vertex -3.8077 39.6 38.5751
    endloop
  endfacet
  facet normal 0 1 0
    outer loop
      vertex -3.8077 39.6 38.5751
      vertex -3.3082 39.6 -17.8876
      vertex -5.85317 39.6 40.4271
    endloop
  endfacet
  facet normal 0 1 -0
    outer loop
      vertex -3.8077 39.6 -19.4249
      vertex -5.85317 39.6 40.4271
      vertex -3.3082 39.6 -17.8876
    endloop
  endfacet
  facet normal 0 1 0
    outer loop
      vertex -3.8077 39.6 -19.4249
      vertex -5.85317 39.6 -40.4271
      vertex -5.85317 39.6 40.4271
    endloop
  endfacet
  facet normal 0 1 0
    outer loop
      vertex -2.5 39.6 -20.375
      vertex -5.85317 39.6 -40.4271
      vertex -3.8077 39.6 -19.4249
    endloop
  endfacet
  facet normal 0 1 0
    outer loop
      vertex -3 39.6 -42.5
      vertex -1.1923 39.6 -19.4249
      vertex 47 39.6 -42.5
    endloop
  endfacet
  facet normal 0 1 0
    outer loop
      vertex 47 39.6 -42.5
      vertex 49.8532 39.6 -40.4271
      vertex 48.7634 39.6 -41.9271
    endloop
  endfacet
  facet normal 0 1 0
    outer loop
      vertex -1.1923 39.6 -19.4249
      vertex -3 39.6 -42.5
      vertex -2.5 39.6 -20.375
    endloop
  endfacet
  facet normal 0 1 0
    outer loop
      vertex -2.5 39.6 -20.375
      vertex -3 39.6 -42.5
      vertex -5.85317 39.6 -40.4271
    endloop
  endfacet
  facet normal 0 1 0
    outer loop
      vertex -5.85317 39.6 -40.4271
      vertex -3 39.6 -42.5
      vertex -4.76336 39.6 -41.9271
    endloop
  endfacet
  facet normal -0.809017 0 0.587785
    outer loop
      vertex 48.7634 39.6 -41.9271
      vertex 49.8532 40 -40.4271
      vertex 48.7634 40 -41.9271
    endloop
  endfacet
  facet normal -0.809017 0 0.587785
    outer loop
      vertex 49.8532 40 -40.4271
      vertex 48.7634 39.6 -41.9271
      vertex 49.8532 39.6 -40.4271
    endloop
  endfacet
  facet normal 0.309017 0 -0.951057
    outer loop
      vertex -4.76336 39.6 41.9271
      vertex -3 40 42.5
      vertex -3 39.6 42.5
    endloop
  endfacet
  facet normal 0.309017 0 -0.951057
    outer loop
      vertex -3 40 42.5
      vertex -4.76336 39.6 41.9271
      vertex -4.76336 40 41.9271
    endloop
  endfacet
  facet normal -0.809016 0 -0.587786
    outer loop
      vertex 75.875 38 -10
      vertex 74.9249 40 -8.6923
      vertex 75.875 40 -10
    endloop
  endfacet
  facet normal -0.809016 -0 -0.587786
    outer loop
      vertex 74.9249 40 -8.6923
      vertex 75.875 38 -10
      vertex 74.9249 38 -8.6923
    endloop
  endfacet
  facet normal 0.309017 0 -0.951056
    outer loop
      vertex 73.3876 38 -9.1918
      vertex 74.9249 40 -8.6923
      vertex 74.9249 38 -8.6923
    endloop
  endfacet
  facet normal 0.309017 0 -0.951056
    outer loop
      vertex 74.9249 40 -8.6923
      vertex 73.3876 38 -9.1918
      vertex 73.3876 40 -9.1918
    endloop
  endfacet
  facet normal 1 -0 0
    outer loop
      vertex 73.3876 38 -9.1918
      vertex 73.3876 40 -10.8082
      vertex 73.3876 40 -9.1918
    endloop
  endfacet
  facet normal 1 0 0
    outer loop
      vertex 73.3876 40 -10.8082
      vertex 73.3876 38 -9.1918
      vertex 73.3876 38 -10.8082
    endloop
  endfacet
  facet normal 0.309017 0 0.951056
    outer loop
      vertex 73.3876 40 -10.8082
      vertex 74.9249 38 -11.3077
      vertex 74.9249 40 -11.3077
    endloop
  endfacet
  facet normal 0.309017 0 0.951056
    outer loop
      vertex 74.9249 38 -11.3077
      vertex 73.3876 40 -10.8082
      vertex 73.3876 38 -10.8082
    endloop
  endfacet
  facet normal -0.809016 0 0.587786
    outer loop
      vertex 74.9249 38 -11.3077
      vertex 75.875 40 -10
      vertex 74.9249 40 -11.3077
    endloop
  endfacet
  facet normal -0.809016 0 0.587786
    outer loop
      vertex 75.875 40 -10
      vertex 74.9249 38 -11.3077
      vertex 75.875 38 -10
    endloop
  endfacet
  facet normal -0.809016 0 -0.587786
    outer loop
      vertex -73.125 38 -10
      vertex -74.0751 40 -8.6923
      vertex -73.125 40 -10
    endloop
  endfacet
  facet normal -0.809016 -0 -0.587786
    outer loop
      vertex -74.0751 40 -8.6923
      vertex -73.125 38 -10
      vertex -74.0751 38 -8.6923
    endloop
  endfacet
  facet normal 0.309017 0 -0.951056
    outer loop
      vertex -75.6124 38 -9.1918
      vertex -74.0751 40 -8.6923
      vertex -74.0751 38 -8.6923
    endloop
  endfacet
  facet normal 0.309017 0 -0.951056
    outer loop
      vertex -74.0751 40 -8.6923
      vertex -75.6124 38 -9.1918
      vertex -75.6124 40 -9.1918
    endloop
  endfacet
  facet normal 1 -0 0
    outer loop
      vertex -75.6124 38 -9.1918
      vertex -75.6124 40 -10.8082
      vertex -75.6124 40 -9.1918
    endloop
  endfacet
  facet normal 1 0 0
    outer loop
      vertex -75.6124 40 -10.8082
      vertex -75.6124 38 -9.1918
      vertex -75.6124 38 -10.8082
    endloop
  endfacet
  facet normal 0.309017 0 0.951056
    outer loop
      vertex -75.6124 40 -10.8082
      vertex -74.0751 38 -11.3077
      vertex -74.0751 40 -11.3077
    endloop
  endfacet
  facet normal 0.309017 0 0.951056
    outer loop
      vertex -74.0751 38 -11.3077
      vertex -75.6124 40 -10.8082
      vertex -75.6124 38 -10.8082
    endloop
  endfacet
  facet normal -0.809016 0 0.587786
    outer loop
      vertex -74.0751 38 -11.3077
      vertex -73.125 40 -10
      vertex -74.0751 40 -11.3077
    endloop
  endfacet
  facet normal -0.809016 0 0.587786
    outer loop
      vertex -73.125 40 -10
      vertex -74.0751 38 -11.3077
      vertex -73.125 38 -10
    endloop
  endfacet
endsolid OpenSCAD_Model
